<svg version="1.1" viewBox="0.0 0.0 600.0 462.0" fill="none" stroke="none" stroke-linecap="square" stroke-miterlimit="10" width="600" height="462" xmlns:xlink="http://www.w3.org/1999/xlink" xmlns="http://www.w3.org/2000/svg"><path fill="#ffffff" d="M0 0L600.0 0L600.0 462.0L0 462.0L0 0Z" fill-rule="nonzero"/><path stroke="#cccccc" stroke-width="1.0" stroke-linecap="butt" d="M134.5 122.5L134.5 418.5" fill-rule="nonzero"/><path stroke="#cccccc" stroke-width="1.0" stroke-linecap="butt" d="M274.5 122.5L274.5 418.5" fill-rule="nonzero"/><path stroke="#cccccc" stroke-width="1.0" stroke-linecap="butt" d="M415.5 122.5L415.5 418.5" fill-rule="nonzero"/><path stroke="#cccccc" stroke-width="1.0" stroke-linecap="butt" d="M555.5 122.5L555.5 418.5" fill-rule="nonzero"/><path stroke="#cccccc" stroke-width="1.0" stroke-linecap="butt" d="M57.5 392.5L576.5 392.5" fill-rule="nonzero"/><path stroke="#cccccc" stroke-width="1.0" stroke-linecap="butt" d="M57.5 304.5L576.5 304.5" fill-rule="nonzero"/><path stroke="#cccccc" stroke-width="1.0" stroke-linecap="butt" d="M57.5 217.5L576.5 217.5" fill-rule="nonzero"/><path stroke="#cccccc" stroke-width="1.0" stroke-linecap="butt" d="M57.5 129.5L576.5 129.5" fill-rule="nonzero"/><clipPath id="id_0"><path d="M57.1 122.9L576.9 122.9L576.9 418.9L57.1 418.9L57.1 122.9Z" clip-rule="nonzero"/></clipPath><path fill="#4285f4" clip-path="url(#id_0)" d="M560.2528 127.97465C560.2528 130.45993 558.2381 132.47466 555.7528 132.47466C553.2675 132.47466 551.2528 130.45993 551.2528 127.97465C551.2528 125.48937 553.2675 123.47465 555.7528 123.47465C558.2381 123.47465 560.2528 125.48937 560.2528 127.97465Z" fill-rule="nonzero"/><path fill="#4285f4" clip-path="url(#id_0)" d="M490.00342 256.69437C490.00342 259.17966 487.9887 261.19437 485.50342 261.19437C483.01813 261.19437 481.00342 259.17966 481.00342 256.69437C481.00342 254.20909 483.01813 252.19438 485.50342 252.19438C487.9887 252.19438 490.00342 254.20909 490.00342 256.69437Z" fill-rule="nonzero"/><path fill="#4285f4" clip-path="url(#id_0)" d="M419.754 256.74533C419.754 259.23062 417.7393 261.24533 415.254 261.24533C412.76874 261.24533 410.754 259.23062 410.754 256.74533C410.754 254.26004 412.76874 252.24533 415.254 252.24533C417.7393 252.24533 419.754 254.26004 419.754 256.74533Z" fill-rule="nonzero"/><path fill="#4285f4" clip-path="url(#id_0)" d="M349.5046 259.37112C349.5046 261.85638 347.4899 263.87112 345.0046 263.87112C342.51932 263.87112 340.5046 261.85638 340.5046 259.37112C340.5046 256.88583 342.51932 254.87111 345.0046 254.87111C347.4899 254.87111 349.5046 256.88583 349.5046 259.37112Z" fill-rule="nonzero"/><path fill="#4285f4" clip-path="url(#id_0)" d="M279.2552 259.74817C279.2552 262.23346 277.24048 264.24817 274.7552 264.24817C272.26993 264.24817 270.2552 262.23346 270.2552 259.74817C270.2552 257.26288 272.26993 255.24817 274.7552 255.24817C277.24048 255.24817 279.2552 257.26288 279.2552 259.74817Z" fill-rule="nonzero"/><path fill="#4285f4" clip-path="url(#id_0)" d="M209.0058 259.7009C209.0058 262.1862 206.99107 264.2009 204.5058 264.2009C202.02051 264.2009 200.0058 262.1862 200.0058 259.7009C200.0058 257.21564 202.02051 255.20091 204.5058 255.20091C206.99107 255.20091 209.0058 257.21564 209.0058 259.7009Z" fill-rule="nonzero"/><path fill="#4285f4" clip-path="url(#id_0)" d="M138.7564 258.7631C138.7564 261.24838 136.74167 263.2631 134.2564 263.2631C131.7711 263.2631 129.7564 261.24838 129.7564 258.7631C129.7564 256.27783 131.7711 254.2631 134.2564 254.2631C136.74167 254.2631 138.7564 256.27783 138.7564 258.7631Z" fill-rule="nonzero"/><path fill="#4285f4" clip-path="url(#id_0)" d="M511.1506 249.58943C511.1506 252.0747 509.13586 254.08943 506.6506 254.08943C504.1653 254.08943 502.1506 252.0747 502.1506 249.58943C502.1506 247.10416 504.1653 245.08943 506.6506 245.08943C509.13586 245.08943 511.1506 247.10416 511.1506 249.58943Z" fill-rule="nonzero"/><path fill="#4285f4" clip-path="url(#id_0)" d="M440.90118 256.76474C440.90118 259.25 438.88647 261.26474 436.40118 261.26474C433.9159 261.26474 431.90118 259.25 431.90118 256.76474C431.90118 254.27945 433.9159 252.26472 436.40118 252.26472C438.88647 252.26472 440.90118 254.27945 440.90118 256.76474Z" fill-rule="nonzero"/><path fill="#4285f4" clip-path="url(#id_0)" d="M370.6518 259.07513C370.6518 261.56042 368.63705 263.57513 366.1518 263.57513C363.6665 263.57513 361.6518 261.56042 361.6518 259.07513C361.6518 256.58987 363.6665 254.57515 366.1518 254.57515C368.63705 254.57515 370.6518 256.58987 370.6518 259.07513Z" fill-rule="nonzero"/><path fill="#4285f4" clip-path="url(#id_0)" d="M300.40237 259.66458C300.40237 262.14987 298.38766 264.16458 295.90237 264.16458C293.41708 264.16458 291.40237 262.14987 291.40237 259.66458C291.40237 257.1793 293.41708 255.16458 295.90237 255.16458C298.38766 255.16458 300.40237 257.1793 300.40237 259.66458Z" fill-rule="nonzero"/><path fill="#4285f4" clip-path="url(#id_0)" d="M230.15297 259.7312C230.15297 262.2165 228.13826 264.2312 225.65297 264.2312C223.1677 264.2312 221.15297 262.2165 221.15297 259.7312C221.15297 257.24594 223.1677 255.2312 225.65297 255.2312C228.13826 255.2312 230.15297 257.24594 230.15297 259.7312Z" fill-rule="nonzero"/><path fill="#4285f4" clip-path="url(#id_0)" d="M159.90356 259.07816C159.90356 261.56345 157.88885 263.57816 155.40356 263.57816C152.91829 263.57816 150.90356 261.56345 150.90356 259.07816C150.90356 256.5929 152.91829 254.57816 155.40356 254.57816C157.88885 254.57816 159.90356 256.5929 159.90356 259.07816Z" fill-rule="nonzero"/><path fill="#4285f4" clip-path="url(#id_0)" d="M539.10565 220.28325C539.10565 222.76852 537.09094 224.78325 534.60565 224.78325C532.12036 224.78325 530.10565 222.76852 530.10565 220.28325C530.10565 217.79796 532.12036 215.78325 534.60565 215.78325C537.09094 215.78325 539.10565 217.79796 539.10565 220.28325Z" fill-rule="nonzero"/><path fill="#4285f4" clip-path="url(#id_0)" d="M468.85623 256.83237C468.85623 259.31766 466.84152 261.33237 464.35623 261.33237C461.87097 261.33237 459.85623 259.31766 459.85623 256.83237C459.85623 254.34708 461.87097 252.33237 464.35623 252.33237C466.84152 252.33237 468.85623 254.34708 468.85623 256.83237Z" fill-rule="nonzero"/><path fill="#4285f4" clip-path="url(#id_0)" d="M398.60684 258.67584C398.60684 261.16113 396.5921 263.17584 394.10684 263.17584C391.62155 263.17584 389.60684 261.16113 389.60684 258.67584C389.60684 256.19058 391.62155 254.17586 394.10684 254.17586C396.5921 254.17586 398.60684 256.19058 398.60684 258.67584Z" fill-rule="nonzero"/><path fill="#4285f4" clip-path="url(#id_0)" d="M328.35742 259.38007C328.35742 261.86536 326.3427 263.88007 323.85742 263.88007C321.37216 263.88007 319.35742 261.86536 319.35742 259.38007C319.35742 256.89478 321.37216 254.88007 323.85742 254.88007C326.3427 254.88007 328.35742 256.89478 328.35742 259.38007Z" fill-rule="nonzero"/><path fill="#4285f4" clip-path="url(#id_0)" d="M258.10803 259.75995C258.10803 262.24524 256.0933 264.25995 253.60802 264.25995C251.12274 264.25995 249.10802 262.24524 249.10802 259.75995C249.10802 257.2747 251.12274 255.25996 253.60802 255.25996C256.0933 255.25996 258.10803 257.2747 258.10803 259.75995Z" fill-rule="nonzero"/><path fill="#4285f4" clip-path="url(#id_0)" d="M187.85861 259.30658C187.85861 261.79187 185.8439 263.80658 183.35861 263.80658C180.87334 263.80658 178.85861 261.79187 178.85861 259.30658C178.85861 256.82132 180.87334 254.8066 183.35861 254.8066C185.8439 254.8066 187.85861 256.82132 187.85861 259.30658Z" fill-rule="nonzero"/><path fill="#4285f4" clip-path="url(#id_0)" d="M117.609215 258.36432C117.609215 260.8496 115.5945 262.86432 113.109215 262.86432C110.62393 262.86432 108.609215 260.8496 108.609215 258.36432C108.609215 255.87904 110.62393 253.86432 113.109215 253.86432C115.5945 253.86432 117.609215 255.87904 117.609215 258.36432Z" fill-rule="nonzero"/><path fill="#ea4335" clip-path="url(#id_0)" d="M560.2528 188.9579C560.2528 191.44318 558.2381 193.4579 555.7528 193.4579C553.2675 193.4579 551.2528 191.44318 551.2528 188.9579C551.2528 186.47261 553.2675 184.4579 555.7528 184.4579C558.2381 184.4579 560.2528 186.47261 560.2528 188.9579Z" fill-rule="nonzero"/><path fill="#ea4335" clip-path="url(#id_0)" d="M490.00342 215.59096C490.00342 218.07625 487.9887 220.09096 485.50342 220.09096C483.01813 220.09096 481.00342 218.07625 481.00342 215.59096C481.00342 213.10568 483.01813 211.09096 485.50342 211.09096C487.9887 211.09096 490.00342 213.10568 490.00342 215.59096Z" fill-rule="nonzero"/><path fill="#ea4335" clip-path="url(#id_0)" d="M419.754 340.32217C419.754 342.80743 417.7393 344.82217 415.254 344.82217C412.76874 344.82217 410.754 342.80743 410.754 340.32217C410.754 337.83688 412.76874 335.82217 415.254 335.82217C417.7393 335.82217 419.754 337.83688 419.754 340.32217Z" fill-rule="nonzero"/><path fill="#ea4335" clip-path="url(#id_0)" d="M349.5046 340.36258C349.5046 342.84784 347.4899 344.86258 345.0046 344.86258C342.51932 344.86258 340.5046 342.84784 340.5046 340.36258C340.5046 337.8773 342.51932 335.86258 345.0046 335.86258C347.4899 335.86258 349.5046 337.8773 349.5046 340.36258Z" fill-rule="nonzero"/><path fill="#ea4335" clip-path="url(#id_0)" d="M279.2552 342.79126C279.2552 345.27655 277.24048 347.29126 274.7552 347.29126C272.26993 347.29126 270.2552 345.27655 270.2552 342.79126C270.2552 340.30597 272.26993 338.29126 274.7552 338.29126C277.24048 338.29126 279.2552 340.30597 279.2552 342.79126Z" fill-rule="nonzero"/><path fill="#ea4335" clip-path="url(#id_0)" d="M209.0058 342.87512C209.0058 345.3604 206.99107 347.37512 204.5058 347.37512C202.02051 347.37512 200.0058 345.3604 200.0058 342.87512C200.0058 340.38986 202.02051 338.37512 204.5058 338.37512C206.99107 338.37512 209.0058 340.38986 209.0058 342.87512Z" fill-rule="nonzero"/><path fill="#ea4335" clip-path="url(#id_0)" d="M138.7564 342.39584C138.7564 344.88113 136.74167 346.89584 134.2564 346.89584C131.7711 346.89584 129.7564 344.88113 129.7564 342.39584C129.7564 339.91055 131.7711 337.89584 134.2564 337.89584C136.74167 337.89584 138.7564 339.91055 138.7564 342.39584Z" fill-rule="nonzero"/><path fill="#ea4335" clip-path="url(#id_0)" d="M68.50699 336.37097C68.50699 338.85623 66.49226 340.87097 64.00699 340.87097C61.521706 340.87097 59.506985 338.85623 59.506985 336.37097C59.506985 333.88568 61.521706 331.87097 64.00699 331.87097C66.49226 331.87097 68.50699 333.88568 68.50699 336.37097Z" fill-rule="nonzero"/><path fill="#ea4335" clip-path="url(#id_0)" d="M511.1506 215.48526C511.1506 217.97054 509.13586 219.98526 506.6506 219.98526C504.1653 219.98526 502.1506 217.97054 502.1506 215.48526C502.1506 212.99997 504.1653 210.98526 506.6506 210.98526C509.13586 210.98526 511.1506 212.99997 511.1506 215.48526Z" fill-rule="nonzero"/><path fill="#ea4335" clip-path="url(#id_0)" d="M440.90118 333.7753C440.90118 336.26056 438.88647 338.2753 436.40118 338.2753C433.9159 338.2753 431.90118 336.26056 431.90118 333.7753C431.90118 331.29 433.9159 329.2753 436.40118 329.2753C438.88647 329.2753 440.90118 331.29 440.90118 333.7753Z" fill-rule="nonzero"/><path fill="#ea4335" clip-path="url(#id_0)" d="M370.6518 340.37643C370.6518 342.8617 368.63705 344.87643 366.1518 344.87643C363.6665 344.87643 361.6518 342.8617 361.6518 340.37643C361.6518 337.89114 363.6665 335.87643 366.1518 335.87643C368.63705 335.87643 370.6518 337.89114 370.6518 340.37643Z" fill-rule="nonzero"/><path fill="#ea4335" clip-path="url(#id_0)" d="M300.40237 342.55212C300.40237 345.0374 298.38766 347.05212 295.90237 347.05212C293.41708 347.05212 291.40237 345.0374 291.40237 342.55212C291.40237 340.06683 293.41708 338.05212 295.90237 338.05212C298.38766 338.05212 300.40237 340.06683 300.40237 342.55212Z" fill-rule="nonzero"/><path fill="#ea4335" clip-path="url(#id_0)" d="M230.15297 342.8167C230.15297 345.30197 228.13826 347.3167 225.65297 347.3167C223.1677 347.3167 221.15297 345.30197 221.15297 342.8167C221.15297 340.33142 223.1677 338.3167 225.65297 338.3167C228.13826 338.3167 230.15297 340.33142 230.15297 342.8167Z" fill-rule="nonzero"/><path fill="#ea4335" clip-path="url(#id_0)" d="M159.90356 342.6663C159.90356 345.15158 157.88885 347.1663 155.40356 347.1663C152.91829 347.1663 150.90356 345.15158 150.90356 342.6663C150.90356 340.181 152.91829 338.1663 155.40356 338.1663C157.88885 338.1663 159.90356 340.181 159.90356 342.6663Z" fill-rule="nonzero"/><path fill="#ea4335" clip-path="url(#id_0)" d="M89.65417 339.9085C89.65417 342.3938 87.63944 344.4085 85.15417 344.4085C82.668884 344.4085 80.65417 342.3938 80.65417 339.9085C80.65417 337.42325 82.668884 335.4085 85.15417 335.4085C87.63944 335.4085 89.65417 337.42325 89.65417 339.9085Z" fill-rule="nonzero"/><path fill="#ea4335" clip-path="url(#id_0)" d="M539.10565 206.01163C539.10565 208.4969 537.09094 210.51163 534.60565 210.51163C532.12036 210.51163 530.10565 208.4969 530.10565 206.01163C530.10565 203.52634 532.12036 201.51163 534.60565 201.51163C537.09094 201.51163 539.10565 203.52634 539.10565 206.01163Z" fill-rule="nonzero"/><path fill="#ea4335" clip-path="url(#id_0)" d="M468.85623 306.3134C468.85623 308.79868 466.84152 310.8134 464.35623 310.8134C461.87097 310.8134 459.85623 308.79868 459.85623 306.3134C459.85623 303.8281 461.87097 301.8134 464.35623 301.8134C466.84152 301.8134 468.85623 303.8281 468.85623 306.3134Z" fill-rule="nonzero"/><path fill="#ea4335" clip-path="url(#id_0)" d="M398.60684 340.28235C398.60684 342.7676 396.5921 344.78235 394.10684 344.78235C391.62155 344.78235 389.60684 342.7676 389.60684 340.28235C389.60684 337.79706 391.62155 335.78235 394.10684 335.78235C396.5921 335.78235 398.60684 337.79706 398.60684 340.28235Z" fill-rule="nonzero"/><path fill="#ea4335" clip-path="url(#id_0)" d="M328.35742 342.22235C328.35742 344.70764 326.3427 346.72235 323.85742 346.72235C321.37216 346.72235 319.35742 344.70764 319.35742 342.22235C319.35742 339.7371 321.37216 337.72235 323.85742 337.72235C326.3427 337.72235 328.35742 339.7371 328.35742 342.22235Z" fill-rule="nonzero"/><path fill="#ea4335" clip-path="url(#id_0)" d="M258.10803 342.76712C258.10803 345.2524 256.0933 347.26712 253.60802 347.26712C251.12274 347.26712 249.10802 345.2524 249.10802 342.76712C249.10802 340.28183 251.12274 338.26712 253.60802 338.26712C256.0933 338.26712 258.10803 340.28183 258.10803 342.76712Z" fill-rule="nonzero"/><path fill="#ea4335" clip-path="url(#id_0)" d="M187.85861 342.99945C187.85861 345.48474 185.8439 347.49945 183.35861 347.49945C180.87334 347.49945 178.85861 345.48474 178.85861 342.99945C178.85861 340.51416 180.87334 338.49945 183.35861 338.49945C185.8439 338.49945 187.85861 340.51416 187.85861 342.99945Z" fill-rule="nonzero"/><path fill="#ea4335" clip-path="url(#id_0)" d="M117.609215 341.86118C117.609215 344.34644 115.5945 346.36118 113.109215 346.36118C110.62393 346.36118 108.609215 344.34644 108.609215 341.86118C108.609215 339.3759 110.62393 337.36118 113.109215 337.36118C115.5945 337.36118 117.609215 339.3759 117.609215 341.86118Z" fill-rule="nonzero"/><path fill="#fbbc04" clip-path="url(#id_0)" d="M560.2528 194.45837C560.2528 196.94365 558.2381 198.95837 555.7528 198.95837C553.2675 198.95837 551.2528 196.94365 551.2528 194.45837C551.2528 191.97308 553.2675 189.95837 555.7528 189.95837C558.2381 189.95837 560.2528 191.97308 560.2528 194.45837Z" fill-rule="nonzero"/><path fill="#fbbc04" clip-path="url(#id_0)" d="M490.00342 275.63318C490.00342 278.11847 487.9887 280.13318 485.50342 280.13318C483.01813 280.13318 481.00342 278.11847 481.00342 275.63318C481.00342 273.14792 483.01813 271.13318 485.50342 271.13318C487.9887 271.13318 490.00342 273.14792 490.00342 275.63318Z" fill-rule="nonzero"/><path fill="#fbbc04" clip-path="url(#id_0)" d="M419.754 301.5053C419.754 303.99057 417.7393 306.0053 415.254 306.0053C412.76874 306.0053 410.754 303.99057 410.754 301.5053C410.754 299.02002 412.76874 297.0053 415.254 297.0053C417.7393 297.0053 419.754 299.02002 419.754 301.5053Z" fill-rule="nonzero"/><path fill="#fbbc04" clip-path="url(#id_0)" d="M349.5046 402.7003C349.5046 405.18558 347.4899 407.2003 345.0046 407.2003C342.51932 407.2003 340.5046 405.18558 340.5046 402.7003C340.5046 400.21503 342.51932 398.2003 345.0046 398.2003C347.4899 398.2003 349.5046 400.21503 349.5046 402.7003Z" fill-rule="nonzero"/><path fill="#fbbc04" clip-path="url(#id_0)" d="M279.2552 402.72504C279.2552 405.2103 277.24048 407.22504 274.7552 407.22504C272.26993 407.22504 270.2552 405.2103 270.2552 402.72504C270.2552 400.23975 272.26993 398.22504 274.7552 398.22504C277.24048 398.22504 279.2552 400.23975 279.2552 402.72504Z" fill-rule="nonzero"/><path fill="#fbbc04" clip-path="url(#id_0)" d="M209.0058 403.84836C209.0058 406.33365 206.99107 408.34836 204.5058 408.34836C202.02051 408.34836 200.0058 406.33365 200.0058 403.84836C200.0058 401.3631 202.02051 399.34836 204.5058 399.34836C206.99107 399.34836 209.0058 401.3631 209.0058 403.84836Z" fill-rule="nonzero"/><path fill="#fbbc04" clip-path="url(#id_0)" d="M138.7564 403.47208C138.7564 405.95734 136.74167 407.97208 134.2564 407.97208C131.7711 407.97208 129.7564 405.95734 129.7564 403.47208C129.7564 400.9868 131.7711 398.97208 134.2564 398.97208C136.74167 398.97208 138.7564 400.9868 138.7564 403.47208Z" fill-rule="nonzero"/><path fill="#fbbc04" clip-path="url(#id_0)" d="M68.50699 395.23276C68.50699 397.71805 66.49226 399.73276 64.00699 399.73276C61.521706 399.73276 59.506985 397.71805 59.506985 395.23276C59.506985 392.74747 61.521706 390.73276 64.00699 390.73276C66.49226 390.73276 68.50699 392.74747 68.50699 395.23276Z" fill-rule="nonzero"/><path fill="#fbbc04" clip-path="url(#id_0)" d="M511.1506 254.9203C511.1506 257.40558 509.13586 259.42032 506.6506 259.42032C504.1653 259.42032 502.1506 257.40558 502.1506 254.9203C502.1506 252.43503 504.1653 250.4203 506.6506 250.4203C509.13586 250.4203 511.1506 252.43503 511.1506 254.9203Z" fill-rule="nonzero"/><path fill="#fbbc04" clip-path="url(#id_0)" d="M440.90118 301.47647C440.90118 303.96176 438.88647 305.97647 436.40118 305.97647C433.9159 305.97647 431.90118 303.96176 431.90118 301.47647C431.90118 298.99118 433.9159 296.97647 436.40118 296.97647C438.88647 296.97647 440.90118 298.99118 440.90118 301.47647Z" fill-rule="nonzero"/><path fill="#fbbc04" clip-path="url(#id_0)" d="M370.6518 398.33777C370.6518 400.82306 368.63705 402.83777 366.1518 402.83777C363.6665 402.83777 361.6518 400.82306 361.6518 398.33777C361.6518 395.85248 363.6665 393.83777 366.1518 393.83777C368.63705 393.83777 370.6518 395.85248 370.6518 398.33777Z" fill-rule="nonzero"/><path fill="#fbbc04" clip-path="url(#id_0)" d="M300.40237 403.14148C300.40237 405.62677 298.38766 407.64148 295.90237 407.64148C293.41708 407.64148 291.40237 405.62677 291.40237 403.14148C291.40237 400.65622 293.41708 398.64148 295.90237 398.64148C298.38766 398.64148 300.40237 400.65622 300.40237 403.14148Z" fill-rule="nonzero"/><path fill="#fbbc04" clip-path="url(#id_0)" d="M230.15297 403.789C230.15297 406.27426 228.13826 408.289 225.65297 408.289C223.1677 408.289 221.15297 406.27426 221.15297 403.789C221.15297 401.3037 223.1677 399.289 225.65297 399.289C228.13826 399.289 230.15297 401.3037 230.15297 403.789Z" fill-rule="nonzero"/><path fill="#fbbc04" clip-path="url(#id_0)" d="M159.90356 404.05457C159.90356 406.53983 157.88885 408.55457 155.40356 408.55457C152.91829 408.55457 150.90356 406.53983 150.90356 404.05457C150.90356 401.56927 152.91829 399.55457 155.40356 399.55457C157.88885 399.55457 159.90356 401.56927 159.90356 404.05457Z" fill-rule="nonzero"/><path fill="#fbbc04" clip-path="url(#id_0)" d="M89.65417 399.89423C89.65417 402.37952 87.63944 404.39423 85.15417 404.39423C82.668884 404.39423 80.65417 402.37952 80.65417 399.89423C80.65417 397.40894 82.668884 395.39423 85.15417 395.39423C87.63944 395.39423 89.65417 397.40894 89.65417 399.89423Z" fill-rule="nonzero"/><path fill="#fbbc04" clip-path="url(#id_0)" d="M539.10565 220.71597C539.10565 223.20125 537.09094 225.21597 534.60565 225.21597C532.12036 225.21597 530.10565 223.20125 530.10565 220.71597C530.10565 218.23068 532.12036 216.21597 534.60565 216.21597C537.09094 216.21597 539.10565 218.23068 539.10565 220.71597Z" fill-rule="nonzero"/><path fill="#fbbc04" clip-path="url(#id_0)" d="M468.85623 292.26086C468.85623 294.74615 466.84152 296.76086 464.35623 296.76086C461.87097 296.76086 459.85623 294.74615 459.85623 292.26086C459.85623 289.7756 461.87097 287.76086 464.35623 287.76086C466.84152 287.76086 468.85623 289.7756 468.85623 292.26086Z" fill-rule="nonzero"/><path fill="#fbbc04" clip-path="url(#id_0)" d="M398.60684 380.8035C398.60684 383.2888 396.5921 385.3035 394.10684 385.3035C391.62155 385.3035 389.60684 383.2888 389.60684 380.8035C389.60684 378.3182 391.62155 376.3035 394.10684 376.3035C396.5921 376.3035 398.60684 378.3182 398.60684 380.8035Z" fill-rule="nonzero"/><path fill="#fbbc04" clip-path="url(#id_0)" d="M328.35742 402.67712C328.35742 405.1624 326.3427 407.17712 323.85742 407.17712C321.37216 407.17712 319.35742 405.1624 319.35742 402.67712C319.35742 400.19186 321.37216 398.17712 323.85742 398.17712C326.3427 398.17712 328.35742 400.19186 328.35742 402.67712Z" fill-rule="nonzero"/><path fill="#fbbc04" clip-path="url(#id_0)" d="M258.10803 403.05927C258.10803 405.54456 256.0933 407.55927 253.60802 407.55927C251.12274 407.55927 249.10802 405.54456 249.10802 403.05927C249.10802 400.574 251.12274 398.55927 253.60802 398.55927C256.0933 398.55927 258.10803 400.574 258.10803 403.05927Z" fill-rule="nonzero"/><path fill="#fbbc04" clip-path="url(#id_0)" d="M187.85861 402.60757C187.85861 405.09283 185.8439 407.10757 183.35861 407.10757C180.87334 407.10757 178.85861 405.09283 178.85861 402.60757C178.85861 400.12228 180.87334 398.10757 183.35861 398.10757C185.8439 398.10757 187.85861 400.12228 187.85861 402.60757Z" fill-rule="nonzero"/><path fill="#fbbc04" clip-path="url(#id_0)" d="M117.609215 403.1144C117.609215 405.5997 115.5945 407.6144 113.109215 407.6144C110.62393 407.6144 108.609215 405.5997 108.609215 403.1144C108.609215 400.62912 110.62393 398.6144 113.109215 398.6144C115.5945 398.6144 117.609215 400.62912 117.609215 403.1144Z" fill-rule="nonzero"/><path fill="#000000" d="M48.56875 396.53925L47.521873 396.53925L47.521873 389.8205Q47.13125 390.17987 46.50625 390.55487Q45.896873 390.91425 45.4125 391.08612L45.4125 390.0705Q46.2875 389.64862 46.94375 389.0705Q47.615623 388.47675 47.896873 387.91425L48.56875 387.91425L48.56875 396.53925Z" fill-rule="nonzero"/><path fill="#000000" d="M41.56875 308.97076L40.521873 308.97076L40.521873 302.252Q40.13125 302.6114 39.50625 302.9864Q38.896873 303.34576 38.4125 303.51764L38.4125 302.502Q39.2875 302.08014 39.94375 301.502Q40.615623 300.90826 40.896873 300.34576L41.56875 300.34576L41.56875 308.97076ZM44.6 304.7364Q44.6 303.20514 44.9125 302.28326Q45.225 301.34576 45.834373 300.84576Q46.459373 300.34576 47.396873 300.34576Q48.084373 300.34576 48.6 300.627Q49.13125 300.90826 49.475 301.4395Q49.81875 301.95514 50.00625 302.70514Q50.19375 303.45514 50.19375 304.7364Q50.19375 306.252 49.88125 307.1739Q49.584373 308.09576 48.959373 308.6114Q48.35 309.1114 47.396873 309.1114Q46.1625 309.1114 45.44375 308.22076Q44.6 307.15826 44.6 304.7364ZM45.678123 304.7364Q45.678123 306.84576 46.178123 307.5489Q46.678123 308.252 47.396873 308.252Q48.13125 308.252 48.615623 307.5489Q49.115623 306.84576 49.115623 304.7364Q49.115623 302.6114 48.615623 301.9239Q48.13125 301.22076 47.38125 301.22076Q46.6625 301.22076 46.225 301.83014Q45.678123 302.6114 45.678123 304.7364Z" fill-rule="nonzero"/><path fill="#000000" d="M34.56875 221.40227L33.521873 221.40227L33.521873 214.68352Q33.13125 215.0429 32.50625 215.4179Q31.896875 215.77727 31.4125 215.94914L31.4125 214.93352Q32.2875 214.51164 32.94375 213.93352Q33.615623 213.33977 33.896873 212.77727L34.56875 212.77727L34.56875 221.40227ZM37.6 217.1679Q37.6 215.63664 37.9125 214.71477Q38.225 213.77727 38.834373 213.27727Q39.459373 212.77727 40.396873 212.77727Q41.084373 212.77727 41.6 213.05852Q42.13125 213.33977 42.475 213.87102Q42.81875 214.38664 43.00625 215.13664Q43.19375 215.88664 43.19375 217.1679Q43.19375 218.68352 42.88125 219.6054Q42.584373 220.52727 41.959373 221.0429Q41.35 221.5429 40.396873 221.5429Q39.1625 221.5429 38.44375 220.65227Q37.6 219.58977 37.6 217.1679ZM38.678123 217.1679Q38.678123 219.27727 39.178123 219.9804Q39.678123 220.68352 40.396873 220.68352Q41.13125 220.68352 41.615623 219.9804Q42.115623 219.27727 42.115623 217.1679Q42.115623 215.0429 41.615623 214.3554Q41.13125 213.65227 40.38125 213.65227Q39.6625 213.65227 39.225 214.26164Q38.678123 215.0429 38.678123 217.1679ZM44.6 217.1679Q44.6 215.63664 44.9125 214.71477Q45.225 213.77727 45.834373 213.27727Q46.459373 212.77727 47.396873 212.77727Q48.084373 212.77727 48.6 213.05852Q49.13125 213.33977 49.475 213.87102Q49.81875 214.38664 50.00625 215.13664Q50.19375 215.88664 50.19375 217.1679Q50.19375 218.68352 49.88125 219.6054Q49.584373 220.52727 48.959373 221.0429Q48.35 221.5429 47.396873 221.5429Q46.1625 221.5429 45.44375 220.65227Q44.6 219.58977 44.6 217.1679ZM45.678123 217.1679Q45.678123 219.27727 46.178123 219.9804Q46.678123 220.68352 47.396873 220.68352Q48.13125 220.68352 48.615623 219.9804Q49.115623 219.27727 49.115623 217.1679Q49.115623 215.0429 48.615623 214.3554Q48.13125 213.65227 47.38125 213.65227Q46.6625 213.65227 46.225 214.26164Q45.678123 215.0429 45.678123 217.1679Z" fill-rule="nonzero"/><path fill="#000000" d="M27.56875 133.83379L26.521875 133.83379L26.521875 127.115036Q26.13125 127.47441 25.50625 127.84941Q24.896875 128.20879 24.4125 128.38066L24.4125 127.365036Q25.2875 126.94316 25.94375 126.365036Q26.615625 125.771286 26.896875 125.208786L27.56875 125.208786L27.56875 133.83379ZM30.6 129.59941Q30.6 128.06816 30.9125 127.146286Q31.225 126.208786 31.834375 125.708786Q32.459373 125.208786 33.396873 125.208786Q34.084373 125.208786 34.6 125.490036Q35.13125 125.771286 35.475 126.302536Q35.81875 126.81816 36.00625 127.56816Q36.19375 128.31816 36.19375 129.59941Q36.19375 131.11504 35.88125 132.03691Q35.584373 132.95879 34.959373 133.47441Q34.35 133.97441 33.396873 133.97441Q32.1625 133.97441 31.44375 133.08379Q30.6 132.02129 30.6 129.59941ZM31.678125 129.59941Q31.678125 131.70879 32.178123 132.41191Q32.678123 133.11504 33.396873 133.11504Q34.13125 133.11504 34.615623 132.41191Q35.115623 131.70879 35.115623 129.59941Q35.115623 127.47441 34.615623 126.78691Q34.13125 126.083786 33.38125 126.083786Q32.6625 126.083786 32.225 126.69316Q31.678125 127.47441 31.678125 129.59941ZM37.6 129.59941Q37.6 128.06816 37.9125 127.146286Q38.225 126.208786 38.834373 125.708786Q39.459373 125.208786 40.396873 125.208786Q41.084373 125.208786 41.6 125.490036Q42.13125 125.771286 42.475 126.302536Q42.81875 126.81816 43.00625 127.56816Q43.19375 128.31816 43.19375 129.59941Q43.19375 131.11504 42.88125 132.03691Q42.584373 132.95879 41.959373 133.47441Q41.35 133.97441 40.396873 133.97441Q39.1625 133.97441 38.44375 133.08379Q37.6 132.02129 37.6 129.59941ZM38.678123 129.59941Q38.678123 131.70879 39.178123 132.41191Q39.678123 133.11504 40.396873 133.11504Q41.13125 133.11504 41.615623 132.41191Q42.115623 131.70879 42.115623 129.59941Q42.115623 127.47441 41.615623 126.78691Q41.13125 126.083786 40.38125 126.083786Q39.6625 126.083786 39.225 126.69316Q38.678123 127.47441 38.678123 129.59941ZM44.6 129.59941Q44.6 128.06816 44.9125 127.146286Q45.225 126.208786 45.834373 125.708786Q46.459373 125.208786 47.396873 125.208786Q48.084373 125.208786 48.6 125.490036Q49.13125 125.771286 49.475 126.302536Q49.81875 126.81816 50.00625 127.56816Q50.19375 128.31816 50.19375 129.59941Q50.19375 131.11504 49.88125 132.03691Q49.584373 132.95879 48.959373 133.47441Q48.35 133.97441 47.396873 133.97441Q46.1625 133.97441 45.44375 133.08379Q44.6 132.02129 44.6 129.59941ZM45.678123 129.59941Q45.678123 131.70879 46.178123 132.41191Q46.678123 133.11504 47.396873 133.11504Q48.13125 133.11504 48.615623 132.41191Q49.115623 131.70879 49.115623 129.59941Q49.115623 127.47441 48.615623 126.78691Q48.13125 126.083786 47.38125 126.083786Q46.6625 126.083786 46.225 126.69316Q45.678123 127.47441 45.678123 129.59941Z" fill-rule="nonzero"/><path fill="#000000" d="M128.22514 435.9L127.17827 435.9L127.17827 429.18124Q126.78764 429.54062 126.16264 429.91562Q125.55327 430.275 125.06889 430.44687L125.06889 429.43124Q125.94389 429.00937 126.60014 428.43124Q127.27202 427.8375 127.55327 427.275L128.22514 427.275L128.22514 435.9ZM131.2564 431.66562Q131.2564 430.13437 131.5689 429.2125Q131.8814 428.275 132.49077 427.775Q133.11577 427.275 134.05327 427.275Q134.74077 427.275 135.2564 427.55624Q135.78764 427.8375 136.1314 428.36874Q136.47514 428.88437 136.66264 429.63437Q136.85014 430.38437 136.85014 431.66562Q136.85014 433.18124 136.53764 434.10312Q136.24077 435.025 135.61577 435.54062Q135.0064 436.04062 134.05327 436.04062Q132.8189 436.04062 132.10014 435.15Q131.2564 434.0875 131.2564 431.66562ZM132.33452 431.66562Q132.33452 433.775 132.83452 434.47812Q133.33452 435.18124 134.05327 435.18124Q134.78764 435.18124 135.27202 434.47812Q135.77202 433.775 135.77202 431.66562Q135.77202 429.54062 135.27202 428.85312Q134.78764 428.15 134.03764 428.15Q133.3189 428.15 132.8814 428.75937Q132.33452 429.54062 132.33452 431.66562ZM138.2564 431.66562Q138.2564 430.13437 138.5689 429.2125Q138.8814 428.275 139.49077 427.775Q140.11577 427.275 141.05327 427.275Q141.74077 427.275 142.2564 427.55624Q142.78764 427.8375 143.1314 428.36874Q143.47514 428.88437 143.66264 429.63437Q143.85014 430.38437 143.85014 431.66562Q143.85014 433.18124 143.53764 434.10312Q143.24077 435.025 142.61577 435.54062Q142.0064 436.04062 141.05327 436.04062Q139.8189 436.04062 139.10014 435.15Q138.2564 434.0875 138.2564 431.66562ZM139.33452 431.66562Q139.33452 433.775 139.83452 434.47812Q140.33452 435.18124 141.05327 435.18124Q141.78764 435.18124 142.27202 434.47812Q142.77202 433.775 142.77202 431.66562Q142.77202 429.54062 142.27202 428.85312Q141.78764 428.15 141.03764 428.15Q140.3189 428.15 139.8814 428.75937Q139.33452 429.54062 139.33452 431.66562Z" fill-rule="nonzero"/><path fill="#000000" d="M261.72394 435.9L260.67706 435.9L260.67706 429.18124Q260.28644 429.54062 259.66144 429.91562Q259.05206 430.275 258.5677 430.44687L258.5677 429.43124Q259.4427 429.00937 260.09894 428.43124Q260.7708 427.8375 261.05206 427.275L261.72394 427.275L261.72394 435.9ZM264.7552 431.66562Q264.7552 430.13437 265.0677 429.2125Q265.3802 428.275 265.98956 427.775Q266.61456 427.275 267.55206 427.275Q268.23956 427.275 268.7552 427.55624Q269.28644 427.8375 269.6302 428.36874Q269.97394 428.88437 270.16144 429.63437Q270.34894 430.38437 270.34894 431.66562Q270.34894 433.18124 270.03644 434.10312Q269.73956 435.025 269.11456 435.54062Q268.5052 436.04062 267.55206 436.04062Q266.3177 436.04062 265.59894 435.15Q264.7552 434.0875 264.7552 431.66562ZM265.8333 431.66562Q265.8333 433.775 266.3333 434.47812Q266.8333 435.18124 267.55206 435.18124Q268.28644 435.18124 268.7708 434.47812Q269.2708 433.775 269.2708 431.66562Q269.2708 429.54062 268.7708 428.85312Q268.28644 428.15 267.53644 428.15Q266.8177 428.15 266.3802 428.75937Q265.8333 429.54062 265.8333 431.66562ZM271.7552 431.66562Q271.7552 430.13437 272.0677 429.2125Q272.3802 428.275 272.98956 427.775Q273.61456 427.275 274.55206 427.275Q275.23956 427.275 275.7552 427.55624Q276.28644 427.8375 276.6302 428.36874Q276.97394 428.88437 277.16144 429.63437Q277.34894 430.38437 277.34894 431.66562Q277.34894 433.18124 277.03644 434.10312Q276.73956 435.025 276.11456 435.54062Q275.5052 436.04062 274.55206 436.04062Q273.3177 436.04062 272.59894 435.15Q271.7552 434.0875 271.7552 431.66562ZM272.8333 431.66562Q272.8333 433.775 273.3333 434.47812Q273.8333 435.18124 274.55206 435.18124Q275.28644 435.18124 275.7708 434.47812Q276.2708 433.775 276.2708 431.66562Q276.2708 429.54062 275.7708 428.85312Q275.28644 428.15 274.53644 428.15Q273.8177 428.15 273.3802 428.75937Q272.8333 429.54062 272.8333 431.66562ZM278.7552 431.66562Q278.7552 430.13437 279.0677 429.2125Q279.3802 428.275 279.98956 427.775Q280.61456 427.275 281.55206 427.275Q282.23956 427.275 282.7552 427.55624Q283.28644 427.8375 283.6302 428.36874Q283.97394 428.88437 284.16144 429.63437Q284.34894 430.38437 284.34894 431.66562Q284.34894 433.18124 284.03644 434.10312Q283.73956 435.025 283.11456 435.54062Q282.5052 436.04062 281.55206 436.04062Q280.3177 436.04062 279.59894 435.15Q278.7552 434.0875 278.7552 431.66562ZM279.8333 431.66562Q279.8333 433.775 280.3333 434.47812Q280.8333 435.18124 281.55206 435.18124Q282.28644 435.18124 282.7708 434.47812Q283.2708 433.775 283.2708 431.66562Q283.2708 429.54062 282.7708 428.85312Q282.28644 428.15 281.53644 428.15Q280.8177 428.15 280.3802 428.75937Q279.8333 429.54062 279.8333 431.66562ZM285.7552 431.66562Q285.7552 430.13437 286.0677 429.2125Q286.3802 428.275 286.98956 427.775Q287.61456 427.275 288.55206 427.275Q289.23956 427.275 289.7552 427.55624Q290.28644 427.8375 290.6302 428.36874Q290.97394 428.88437 291.16144 429.63437Q291.34894 430.38437 291.34894 431.66562Q291.34894 433.18124 291.03644 434.10312Q290.73956 435.025 290.11456 435.54062Q289.5052 436.04062 288.55206 436.04062Q287.3177 436.04062 286.59894 435.15Q285.7552 434.0875 285.7552 431.66562ZM286.8333 431.66562Q286.8333 433.775 287.3333 434.47812Q287.8333 435.18124 288.55206 435.18124Q289.28644 435.18124 289.7708 434.47812Q290.2708 433.775 290.2708 431.66562Q290.2708 429.54062 289.7708 428.85312Q289.28644 428.15 288.53644 428.15Q287.8177 428.15 287.3802 428.75937Q286.8333 429.54062 286.8333 431.66562Z" fill-rule="nonzero"/><path fill="#000000" d="M395.22275 435.9L394.17587 435.9L394.17587 429.18124Q393.78525 429.54062 393.16025 429.91562Q392.55087 430.275 392.0665 430.44687L392.0665 429.43124Q392.9415 429.00937 393.59775 428.43124Q394.26962 427.8375 394.55087 427.275L395.22275 427.275L395.22275 435.9ZM398.254 431.66562Q398.254 430.13437 398.5665 429.2125Q398.879 428.275 399.48837 427.775Q400.11337 427.275 401.05087 427.275Q401.73837 427.275 402.254 427.55624Q402.78525 427.8375 403.129 428.36874Q403.47275 428.88437 403.66025 429.63437Q403.84775 430.38437 403.84775 431.66562Q403.84775 433.18124 403.53525 434.10312Q403.23837 435.025 402.61337 435.54062Q402.004 436.04062 401.05087 436.04062Q399.8165 436.04062 399.09775 435.15Q398.254 434.0875 398.254 431.66562ZM399.33212 431.66562Q399.33212 433.775 399.83212 434.47812Q400.33212 435.18124 401.05087 435.18124Q401.78525 435.18124 402.26962 434.47812Q402.76962 433.775 402.76962 431.66562Q402.76962 429.54062 402.26962 428.85312Q401.78525 428.15 401.03525 428.15Q400.3165 428.15 399.879 428.75937Q399.33212 429.54062 399.33212 431.66562ZM405.254 431.66562Q405.254 430.13437 405.5665 429.2125Q405.879 428.275 406.48837 427.775Q407.11337 427.275 408.05087 427.275Q408.73837 427.275 409.254 427.55624Q409.78525 427.8375 410.129 428.36874Q410.47275 428.88437 410.66025 429.63437Q410.84775 430.38437 410.84775 431.66562Q410.84775 433.18124 410.53525 434.10312Q410.23837 435.025 409.61337 435.54062Q409.004 436.04062 408.05087 436.04062Q406.8165 436.04062 406.09775 435.15Q405.254 434.0875 405.254 431.66562ZM406.33212 431.66562Q406.33212 433.775 406.83212 434.47812Q407.33212 435.18124 408.05087 435.18124Q408.78525 435.18124 409.26962 434.47812Q409.76962 433.775 409.76962 431.66562Q409.76962 429.54062 409.26962 428.85312Q408.78525 428.15 408.03525 428.15Q407.3165 428.15 406.879 428.75937Q406.33212 429.54062 406.33212 431.66562ZM412.254 431.66562Q412.254 430.13437 412.5665 429.2125Q412.879 428.275 413.48837 427.775Q414.11337 427.275 415.05087 427.275Q415.73837 427.275 416.254 427.55624Q416.78525 427.8375 417.129 428.36874Q417.47275 428.88437 417.66025 429.63437Q417.84775 430.38437 417.84775 431.66562Q417.84775 433.18124 417.53525 434.10312Q417.23837 435.025 416.61337 435.54062Q416.004 436.04062 415.05087 436.04062Q413.8165 436.04062 413.09775 435.15Q412.254 434.0875 412.254 431.66562ZM413.33212 431.66562Q413.33212 433.775 413.83212 434.47812Q414.33212 435.18124 415.05087 435.18124Q415.78525 435.18124 416.26962 434.47812Q416.76962 433.775 416.76962 431.66562Q416.76962 429.54062 416.26962 428.85312Q415.78525 428.15 415.03525 428.15Q414.3165 428.15 413.879 428.75937Q413.33212 429.54062 413.33212 431.66562ZM419.254 431.66562Q419.254 430.13437 419.5665 429.2125Q419.879 428.275 420.48837 427.775Q421.11337 427.275 422.05087 427.275Q422.73837 427.275 423.254 427.55624Q423.78525 427.8375 424.129 428.36874Q424.47275 428.88437 424.66025 429.63437Q424.84775 430.38437 424.84775 431.66562Q424.84775 433.18124 424.53525 434.10312Q424.23837 435.025 423.61337 435.54062Q423.004 436.04062 422.05087 436.04062Q420.8165 436.04062 420.09775 435.15Q419.254 434.0875 419.254 431.66562ZM420.33212 431.66562Q420.33212 433.775 420.83212 434.47812Q421.33212 435.18124 422.05087 435.18124Q422.78525 435.18124 423.26962 434.47812Q423.76962 433.775 423.76962 431.66562Q423.76962 429.54062 423.26962 428.85312Q422.78525 428.15 422.03525 428.15Q421.3165 428.15 420.879 428.75937Q420.33212 429.54062 420.33212 431.66562ZM426.254 431.66562Q426.254 430.13437 426.5665 429.2125Q426.879 428.275 427.48837 427.775Q428.11337 427.275 429.05087 427.275Q429.73837 427.275 430.254 427.55624Q430.78525 427.8375 431.129 428.36874Q431.47275 428.88437 431.66025 429.63437Q431.84775 430.38437 431.84775 431.66562Q431.84775 433.18124 431.53525 434.10312Q431.23837 435.025 430.61337 435.54062Q430.004 436.04062 429.05087 436.04062Q427.8165 436.04062 427.09775 435.15Q426.254 434.0875 426.254 431.66562ZM427.33212 431.66562Q427.33212 433.775 427.83212 434.47812Q428.33212 435.18124 429.05087 435.18124Q429.78525 435.18124 430.26962 434.47812Q430.76962 433.775 430.76962 431.66562Q430.76962 429.54062 430.26962 428.85312Q429.78525 428.15 429.03525 428.15Q428.3165 428.15 427.879 428.75937Q427.33212 429.54062 427.33212 431.66562ZM433.254 431.66562Q433.254 430.13437 433.5665 429.2125Q433.879 428.275 434.48837 427.775Q435.11337 427.275 436.05087 427.275Q436.73837 427.275 437.254 427.55624Q437.78525 427.8375 438.129 428.36874Q438.47275 428.88437 438.66025 429.63437Q438.84775 430.38437 438.84775 431.66562Q438.84775 433.18124 438.53525 434.10312Q438.23837 435.025 437.61337 435.54062Q437.004 436.04062 436.05087 436.04062Q434.8165 436.04062 434.09775 435.15Q433.254 434.0875 433.254 431.66562ZM434.33212 431.66562Q434.33212 433.775 434.83212 434.47812Q435.33212 435.18124 436.05087 435.18124Q436.78525 435.18124 437.26962 434.47812Q437.76962 433.775 437.76962 431.66562Q437.76962 429.54062 437.26962 428.85312Q436.78525 428.15 436.03525 428.15Q435.3165 428.15 434.879 428.75937Q434.33212 429.54062 434.33212 431.66562Z" fill-rule="nonzero"/><path fill="#000000" d="M528.72156 435.9L527.6747 435.9L527.6747 429.18124Q527.28406 429.54062 526.65906 429.91562Q526.0497 430.275 525.5653 430.44687L525.5653 429.43124Q526.4403 429.00937 527.09656 428.43124Q527.76843 427.8375 528.0497 427.275L528.72156 427.275L528.72156 435.9ZM531.7528 431.66562Q531.7528 430.13437 532.0653 429.2125Q532.3778 428.275 532.9872 427.775Q533.6122 427.275 534.5497 427.275Q535.2372 427.275 535.7528 427.55624Q536.28406 427.8375 536.6278 428.36874Q536.97156 428.88437 537.15906 429.63437Q537.34656 430.38437 537.34656 431.66562Q537.34656 433.18124 537.03406 434.10312Q536.7372 435.025 536.1122 435.54062Q535.5028 436.04062 534.5497 436.04062Q533.3153 436.04062 532.59656 435.15Q531.7528 434.0875 531.7528 431.66562ZM532.83093 431.66562Q532.83093 433.775 533.33093 434.47812Q533.83093 435.18124 534.5497 435.18124Q535.28406 435.18124 535.76843 434.47812Q536.26843 433.775 536.26843 431.66562Q536.26843 429.54062 535.76843 428.85312Q535.28406 428.15 534.53406 428.15Q533.8153 428.15 533.3778 428.75937Q532.83093 429.54062 532.83093 431.66562ZM538.7528 431.66562Q538.7528 430.13437 539.0653 429.2125Q539.3778 428.275 539.9872 427.775Q540.6122 427.275 541.5497 427.275Q542.2372 427.275 542.7528 427.55624Q543.28406 427.8375 543.6278 428.36874Q543.97156 428.88437 544.15906 429.63437Q544.34656 430.38437 544.34656 431.66562Q544.34656 433.18124 544.03406 434.10312Q543.7372 435.025 543.1122 435.54062Q542.5028 436.04062 541.5497 436.04062Q540.3153 436.04062 539.59656 435.15Q538.7528 434.0875 538.7528 431.66562ZM539.83093 431.66562Q539.83093 433.775 540.33093 434.47812Q540.83093 435.18124 541.5497 435.18124Q542.28406 435.18124 542.76843 434.47812Q543.26843 433.775 543.26843 431.66562Q543.26843 429.54062 542.76843 428.85312Q542.28406 428.15 541.53406 428.15Q540.8153 428.15 540.3778 428.75937Q539.83093 429.54062 539.83093 431.66562ZM545.7528 431.66562Q545.7528 430.13437 546.0653 429.2125Q546.3778 428.275 546.9872 427.775Q547.6122 427.275 548.5497 427.275Q549.2372 427.275 549.7528 427.55624Q550.28406 427.8375 550.6278 428.36874Q550.97156 428.88437 551.15906 429.63437Q551.34656 430.38437 551.34656 431.66562Q551.34656 433.18124 551.03406 434.10312Q550.7372 435.025 550.1122 435.54062Q549.5028 436.04062 548.5497 436.04062Q547.3153 436.04062 546.59656 435.15Q545.7528 434.0875 545.7528 431.66562ZM546.83093 431.66562Q546.83093 433.775 547.33093 434.47812Q547.83093 435.18124 548.5497 435.18124Q549.28406 435.18124 549.76843 434.47812Q550.26843 433.775 550.26843 431.66562Q550.26843 429.54062 549.76843 428.85312Q549.28406 428.15 548.53406 428.15Q547.8153 428.15 547.3778 428.75937Q546.83093 429.54062 546.83093 431.66562ZM552.7528 431.66562Q552.7528 430.13437 553.0653 429.2125Q553.3778 428.275 553.9872 427.775Q554.6122 427.275 555.5497 427.275Q556.2372 427.275 556.7528 427.55624Q557.28406 427.8375 557.6278 428.36874Q557.97156 428.88437 558.15906 429.63437Q558.34656 430.38437 558.34656 431.66562Q558.34656 433.18124 558.03406 434.10312Q557.7372 435.025 557.1122 435.54062Q556.5028 436.04062 555.5497 436.04062Q554.3153 436.04062 553.59656 435.15Q552.7528 434.0875 552.7528 431.66562ZM553.83093 431.66562Q553.83093 433.775 554.33093 434.47812Q554.83093 435.18124 555.5497 435.18124Q556.28406 435.18124 556.76843 434.47812Q557.26843 433.775 557.26843 431.66562Q557.26843 429.54062 556.76843 428.85312Q556.28406 428.15 555.53406 428.15Q554.8153 428.15 554.3778 428.75937Q553.83093 429.54062 553.83093 431.66562ZM559.7528 431.66562Q559.7528 430.13437 560.0653 429.2125Q560.3778 428.275 560.9872 427.775Q561.6122 427.275 562.5497 427.275Q563.2372 427.275 563.7528 427.55624Q564.28406 427.8375 564.6278 428.36874Q564.97156 428.88437 565.15906 429.63437Q565.34656 430.38437 565.34656 431.66562Q565.34656 433.18124 565.03406 434.10312Q564.7372 435.025 564.1122 435.54062Q563.5028 436.04062 562.5497 436.04062Q561.3153 436.04062 560.59656 435.15Q559.7528 434.0875 559.7528 431.66562ZM560.83093 431.66562Q560.83093 433.775 561.33093 434.47812Q561.83093 435.18124 562.5497 435.18124Q563.28406 435.18124 563.76843 434.47812Q564.26843 433.775 564.26843 431.66562Q564.26843 429.54062 563.76843 428.85312Q563.28406 428.15 562.53406 428.15Q561.8153 428.15 561.3778 428.75937Q560.83093 429.54062 560.83093 431.66562ZM566.7528 431.66562Q566.7528 430.13437 567.0653 429.2125Q567.3778 428.275 567.9872 427.775Q568.6122 427.275 569.5497 427.275Q570.2372 427.275 570.7528 427.55624Q571.28406 427.8375 571.6278 428.36874Q571.97156 428.88437 572.15906 429.63437Q572.34656 430.38437 572.34656 431.66562Q572.34656 433.18124 572.03406 434.10312Q571.7372 435.025 571.1122 435.54062Q570.5028 436.04062 569.5497 436.04062Q568.3153 436.04062 567.59656 435.15Q566.7528 434.0875 566.7528 431.66562ZM567.83093 431.66562Q567.83093 433.775 568.33093 434.47812Q568.83093 435.18124 569.5497 435.18124Q570.28406 435.18124 570.76843 434.47812Q571.26843 433.775 571.26843 431.66562Q571.26843 429.54062 570.76843 428.85312Q570.28406 428.15 569.53406 428.15Q568.8153 428.15 568.3778 428.75937Q567.83093 429.54062 567.83093 431.66562ZM573.7528 431.66562Q573.7528 430.13437 574.0653 429.2125Q574.3778 428.275 574.9872 427.775Q575.6122 427.275 576.5497 427.275Q577.2372 427.275 577.7528 427.55624Q578.28406 427.8375 578.6278 428.36874Q578.97156 428.88437 579.15906 429.63437Q579.34656 430.38437 579.34656 431.66562Q579.34656 433.18124 579.03406 434.10312Q578.7372 435.025 578.1122 435.54062Q577.5028 436.04062 576.5497 436.04062Q575.3153 436.04062 574.59656 435.15Q573.7528 434.0875 573.7528 431.66562ZM574.83093 431.66562Q574.83093 433.775 575.33093 434.47812Q575.83093 435.18124 576.5497 435.18124Q577.28406 435.18124 577.76843 434.47812Q578.26843 433.775 578.26843 431.66562Q578.26843 429.54062 577.76843 428.85312Q577.28406 428.15 576.53406 428.15Q575.8153 428.15 575.3778 428.75937Q574.83093 429.54062 574.83093 431.66562ZM580.7528 431.66562Q580.7528 430.13437 581.0653 429.2125Q581.3778 428.275 581.9872 427.775Q582.6122 427.275 583.5497 427.275Q584.2372 427.275 584.7528 427.55624Q585.28406 427.8375 585.6278 428.36874Q585.97156 428.88437 586.15906 429.63437Q586.34656 430.38437 586.34656 431.66562Q586.34656 433.18124 586.03406 434.10312Q585.7372 435.025 585.1122 435.54062Q584.5028 436.04062 583.5497 436.04062Q582.3153 436.04062 581.59656 435.15Q580.7528 434.0875 580.7528 431.66562ZM581.83093 431.66562Q581.83093 433.775 582.33093 434.47812Q582.83093 435.18124 583.5497 435.18124Q584.28406 435.18124 584.76843 434.47812Q585.26843 433.775 585.26843 431.66562Q585.26843 429.54062 584.76843 428.85312Q584.28406 428.15 583.53406 428.15Q582.8153 428.15 582.3778 428.75937Q581.83093 429.54062 581.83093 431.66562Z" fill-rule="nonzero"/><path fill="#4285f4" d="M220.0 93.5C220.0 96.813705 217.3137 99.5 214.0 99.5C210.6863 99.5 208.0 96.813705 208.0 93.5C208.0 90.186295 210.6863 87.5 214.0 87.5C217.3137 87.5 220.0 90.186295 220.0 93.5Z" fill-rule="nonzero"/><path fill="#1a1a1a" d="M232.46875 97.5L231.42188 97.5L231.42188 90.78125Q231.03125 91.140625 230.40625 91.515625Q229.79688 91.875 229.3125 92.046875L229.3125 91.03125Q230.1875 90.609375 230.84375 90.03125Q231.51562 89.4375 231.79688 88.875L232.46875 88.875L232.46875 97.5ZM235.5 93.265625Q235.5 91.734375 235.8125 90.8125Q236.125 89.875 236.73438 89.375Q237.35938 88.875 238.29688 88.875Q238.98438 88.875 239.5 89.15625Q240.03125 89.4375 240.375 89.96875Q240.71875 90.484375 240.90625 91.234375Q241.09375 91.984375 241.09375 93.265625Q241.09375 94.78125 240.78125 95.703125Q240.48438 96.625 239.85938 97.140625Q239.25 97.640625 238.29688 97.640625Q237.0625 97.640625 236.34375 96.75Q235.5 95.6875 235.5 93.265625ZM236.57812 93.265625Q236.57812 95.375 237.07812 96.078125Q237.57812 96.78125 238.29688 96.78125Q239.03125 96.78125 239.51562 96.078125Q240.01562 95.375 240.01562 93.265625Q240.01562 91.140625 239.51562 90.453125Q239.03125 89.75 238.28125 89.75Q237.5625 89.75 237.125 90.359375Q236.57812 91.140625 236.57812 93.265625ZM243.40625 93.453125L242.3125 93.453125L244.39062 88.765625L245.23438 88.765625L247.3125 93.453125L246.25 93.453125L244.8125 89.953125L243.40625 93.453125ZM251.46875 97.5L250.42188 97.5L250.42188 90.78125Q250.03125 91.140625 249.40625 91.515625Q248.79688 91.875 248.3125 92.046875L248.3125 91.03125Q249.1875 90.609375 249.84375 90.03125Q250.51562 89.4375 250.79688 88.875L251.46875 88.875L251.46875 97.5ZM258.46875 97.5L257.42188 97.5L257.42188 90.78125Q257.03125 91.140625 256.40625 91.515625Q255.79688 91.875 255.3125 92.046875L255.3125 91.03125Q256.1875 90.609375 256.84375 90.03125Q257.51562 89.4375 257.79688 88.875L258.46875 88.875L258.46875 97.5Z" fill-rule="nonzero"/><path fill="#ea4335" d="M289.0 93.5C289.0 96.813705 286.31372 99.5 283.0 99.5C279.68628 99.5 277.0 96.813705 277.0 93.5C277.0 90.186295 279.68628 87.5 283.0 87.5C286.31372 87.5 289.0 90.186295 289.0 93.5Z" fill-rule="nonzero"/><path fill="#1a1a1a" d="M301.46875 97.5L300.42188 97.5L300.42188 90.78125Q300.03125 91.140625 299.40625 91.515625Q298.79688 91.875 298.3125 92.046875L298.3125 91.03125Q299.1875 90.609375 299.84375 90.03125Q300.51562 89.4375 300.79688 88.875L301.46875 88.875L301.46875 97.5ZM304.5 93.265625Q304.5 91.734375 304.8125 90.8125Q305.125 89.875 305.73438 89.375Q306.35938 88.875 307.29688 88.875Q307.98438 88.875 308.5 89.15625Q309.03125 89.4375 309.375 89.96875Q309.71875 90.484375 309.90625 91.234375Q310.09375 91.984375 310.09375 93.265625Q310.09375 94.78125 309.78125 95.703125Q309.48438 96.625 308.85938 97.140625Q308.25 97.640625 307.29688 97.640625Q306.0625 97.640625 305.34375 96.75Q304.5 95.6875 304.5 93.265625ZM305.57812 93.265625Q305.57812 95.375 306.07812 96.078125Q306.57812 96.78125 307.29688 96.78125Q308.03125 96.78125 308.51562 96.078125Q309.01562 95.375 309.01562 93.265625Q309.01562 91.140625 308.51562 90.453125Q308.03125 89.75 307.28125 89.75Q306.5625 89.75 306.125 90.359375Q305.57812 91.140625 305.57812 93.265625ZM312.40625 93.453125L311.3125 93.453125L313.39062 88.765625L314.23438 88.765625L316.3125 93.453125L315.25 93.453125L313.8125 89.953125L312.40625 93.453125ZM320.46875 97.5L319.42188 97.5L319.42188 90.78125Q319.03125 91.140625 318.40625 91.515625Q317.79688 91.875 317.3125 92.046875L317.3125 91.03125Q318.1875 90.609375 318.84375 90.03125Q319.51562 89.4375 319.79688 88.875L320.46875 88.875L320.46875 97.5ZM323.5 93.265625Q323.5 91.734375 323.8125 90.8125Q324.125 89.875 324.73438 89.375Q325.35938 88.875 326.29688 88.875Q326.98438 88.875 327.5 89.15625Q328.03125 89.4375 328.375 89.96875Q328.71875 90.484375 328.90625 91.234375Q329.09375 91.984375 329.09375 93.265625Q329.09375 94.78125 328.78125 95.703125Q328.48438 96.625 327.85938 97.140625Q327.25 97.640625 326.29688 97.640625Q325.0625 97.640625 324.34375 96.75Q323.5 95.6875 323.5 93.265625ZM324.57812 93.265625Q324.57812 95.375 325.07812 96.078125Q325.57812 96.78125 326.29688 96.78125Q327.03125 96.78125 327.51562 96.078125Q328.01562 95.375 328.01562 93.265625Q328.01562 91.140625 327.51562 90.453125Q327.03125 89.75 326.28125 89.75Q325.5625 89.75 325.125 90.359375Q324.57812 91.140625 324.57812 93.265625Z" fill-rule="nonzero"/><path fill="#fbbc04" d="M358.0 93.5C358.0 96.813705 355.31372 99.5 352.0 99.5C348.68628 99.5 346.0 96.813705 346.0 93.5C346.0 90.186295 348.68628 87.5 352.0 87.5C355.31372 87.5 358.0 90.186295 358.0 93.5Z" fill-rule="nonzero"/><path fill="#1a1a1a" d="M370.46875 97.5L369.42188 97.5L369.42188 90.78125Q369.03125 91.140625 368.40625 91.515625Q367.79688 91.875 367.3125 92.046875L367.3125 91.03125Q368.1875 90.609375 368.84375 90.03125Q369.51562 89.4375 369.79688 88.875L370.46875 88.875L370.46875 97.5ZM373.5 93.265625Q373.5 91.734375 373.8125 90.8125Q374.125 89.875 374.73438 89.375Q375.35938 88.875 376.29688 88.875Q376.98438 88.875 377.5 89.15625Q378.03125 89.4375 378.375 89.96875Q378.71875 90.484375 378.90625 91.234375Q379.09375 91.984375 379.09375 93.265625Q379.09375 94.78125 378.78125 95.703125Q378.48438 96.625 377.85938 97.140625Q377.25 97.640625 376.29688 97.640625Q375.0625 97.640625 374.34375 96.75Q373.5 95.6875 373.5 93.265625ZM374.57812 93.265625Q374.57812 95.375 375.07812 96.078125Q375.57812 96.78125 376.29688 96.78125Q377.03125 96.78125 377.51562 96.078125Q378.01562 95.375 378.01562 93.265625Q378.01562 91.140625 377.51562 90.453125Q377.03125 89.75 376.28125 89.75Q375.5625 89.75 375.125 90.359375Q374.57812 91.140625 374.57812 93.265625ZM381.40625 93.453125L380.3125 93.453125L382.39062 88.765625L383.23438 88.765625L385.3125 93.453125L384.25 93.453125L382.8125 89.953125L381.40625 93.453125ZM385.65625 95.515625L386.67188 95.421875Q386.79688 96.140625 387.15625 96.46875Q387.53125 96.78125 388.09375 96.78125Q388.57812 96.78125 388.9375 96.5625Q389.3125 96.328125 389.54688 95.96875Q389.78125 95.59375 389.9375 94.96875Q390.09375 94.328125 390.09375 93.671875Q390.09375 93.59375 390.09375 93.453125Q389.78125 93.953125 389.23438 94.28125Q388.6875 94.59375 388.04688 94.59375Q386.96875 94.59375 386.23438 93.828125Q385.5 93.046875 385.5 91.78125Q385.5 90.46875 386.26562 89.671875Q387.04688 88.875 388.20312 88.875Q389.03125 88.875 389.71875 89.328125Q390.42188 89.78125 390.78125 90.625Q391.14062 91.453125 391.14062 93.03125Q391.14062 94.671875 390.78125 95.65625Q390.4375 96.625 389.71875 97.140625Q389.01562 97.640625 388.07812 97.640625Q387.0625 97.640625 386.42188 97.09375Q385.78125 96.53125 385.65625 95.515625ZM389.96875 91.71875Q389.96875 90.8125 389.48438 90.28125Q389.01562 89.75 388.32812 89.75Q387.625 89.75 387.09375 90.328125Q386.57812 90.890625 386.57812 91.8125Q386.57812 92.625 387.07812 93.140625Q387.57812 93.65625 388.29688 93.65625Q389.03125 93.65625 389.5 93.140625Q389.96875 92.625 389.96875 91.71875Z" fill-rule="nonzero"/><path fill="#757575" d="M28.2875 42.1L28.2875 29.474998L23.56875 29.474998L23.56875 27.787498L34.9125 27.787498L34.9125 29.474998L30.178125 29.474998L30.178125 42.1L28.2875 42.1ZM36.396873 42.1L36.396873 31.724998L37.975 31.724998L37.975 33.303123Q38.584373 32.19375 39.1 31.849998Q39.615623 31.490623 40.225 31.490623Q41.115623 31.490623 42.0375 32.053123L41.428123 33.69375Q40.7875 33.303123 40.146873 33.303123Q39.56875 33.303123 39.1 33.6625Q38.646873 34.00625 38.44375 34.615623Q38.1625 35.553123 38.1625 36.6625L38.1625 42.1L36.396873 42.1ZM50.19375 40.81875Q49.209373 41.646873 48.303123 41.990623Q47.396873 42.334373 46.365623 42.334373Q44.6625 42.334373 43.740623 41.50625Q42.81875 40.6625 42.81875 39.365623Q42.81875 38.6 43.1625 37.975Q43.521873 37.35 44.084373 36.975Q44.646873 36.584373 45.35 36.38125Q45.865623 36.25625 46.9125 36.115623Q49.0375 35.865623 50.0375 35.521873Q50.053123 35.1625 50.053123 35.053123Q50.053123 33.990623 49.553123 33.5375Q48.88125 32.94375 47.553123 32.94375Q46.303123 32.94375 45.709373 33.38125Q45.13125 33.81875 44.85 34.928123L43.13125 34.69375Q43.365623 33.584373 43.896873 32.9125Q44.428123 32.225 45.44375 31.865623Q46.459373 31.490623 47.803123 31.490623Q49.13125 31.490623 49.959373 31.803123Q50.7875 32.115623 51.178123 32.6Q51.56875 33.06875 51.725 33.7875Q51.81875 34.240623 51.81875 35.4125L51.81875 37.75625Q51.81875 40.209373 51.928123 40.865623Q52.0375 41.50625 52.38125 42.1L50.5375 42.1Q50.271873 41.553123 50.19375 40.81875ZM50.0375 36.896873Q49.084373 37.2875 47.1625 37.553123Q46.084373 37.709373 45.63125 37.9125Q45.19375 38.1 44.94375 38.475Q44.69375 38.85 44.69375 39.31875Q44.69375 40.021873 45.225 40.490623Q45.75625 40.959373 46.7875 40.959373Q47.803123 40.959373 48.584373 40.521873Q49.38125 40.06875 49.75625 39.303123Q50.0375 38.69375 50.0375 37.5375L50.0375 36.896873ZM54.4125 46.06875L54.4125 31.724998L56.021873 31.724998L56.021873 33.06875Q56.584373 32.2875 57.2875 31.896873Q58.00625 31.490623 59.021873 31.490623Q60.35 31.490623 61.365623 32.178123Q62.38125 32.865623 62.896873 34.115623Q63.428123 35.35 63.428123 36.834373Q63.428123 38.428123 62.85 39.709373Q62.2875 40.975 61.19375 41.6625Q60.1 42.334373 58.896873 42.334373Q58.021873 42.334373 57.31875 41.959373Q56.63125 41.584373 56.178123 41.021873L56.178123 46.06875L54.4125 46.06875ZM56.00625 36.975Q56.00625 38.975 56.81875 39.928123Q57.63125 40.88125 58.7875 40.88125Q59.959373 40.88125 60.7875 39.896873Q61.63125 38.9125 61.63125 36.81875Q61.63125 34.85 60.803123 33.865623Q59.990623 32.865623 58.865623 32.865623Q57.740623 32.865623 56.865623 33.928123Q56.00625 34.975 56.00625 36.975ZM72.52187 38.75625L74.33437 38.990623Q73.9125 40.56875 72.74062 41.459373Q71.58437 42.334373 69.77187 42.334373Q67.50625 42.334373 66.1625 40.94375Q64.83437 39.5375 64.83437 37.00625Q64.83437 34.38125 66.17812 32.94375Q67.52187 31.490623 69.67812 31.490623Q71.75625 31.490623 73.06875 32.9125Q74.39687 34.31875 74.39687 36.896873Q74.39687 37.053123 74.38125 37.365623L66.64687 37.365623Q66.74062 39.06875 67.61562 39.975Q68.49062 40.88125 69.7875 40.88125Q70.75625 40.88125 71.42812 40.38125Q72.11562 39.865623 72.52187 38.75625ZM66.74062 35.9125L72.5375 35.9125Q72.42812 34.615623 71.88125 33.959373Q71.0375 32.94375 69.69375 32.94375Q68.49062 32.94375 67.6625 33.75625Q66.83437 34.553123 66.74062 35.9125ZM75.49062 42.1L75.49062 40.678123L82.1 33.1Q80.975 33.146873 80.11562 33.146873L75.88125 33.146873L75.88125 31.724998L84.36562 31.724998L84.36562 32.896873L78.74062 39.475L77.6625 40.678123Q78.83437 40.584373 79.88125 40.584373L84.67812 40.584373L84.67812 42.1L75.49062 42.1ZM84.77187 36.9125Q84.77187 34.0375 86.36562 32.646873Q87.70937 31.490623 89.63125 31.490623Q91.77187 31.490623 93.11562 32.896873Q94.475 34.303123 94.475 36.771873Q94.475 38.771873 93.88125 39.928123Q93.2875 41.06875 92.13125 41.709373Q90.99062 42.334373 89.63125 42.334373Q87.44375 42.334373 86.1 40.94375Q84.77187 39.5375 84.77187 36.9125ZM86.56875 36.9125Q86.56875 38.9125 87.42812 39.896873Q88.30312 40.88125 89.63125 40.88125Q90.94375 40.88125 91.80312 39.896873Q92.67812 38.896873 92.67812 36.85Q92.67812 34.928123 91.80312 33.94375Q90.92812 32.94375 89.63125 32.94375Q88.30312 32.94375 87.42812 33.94375Q86.56875 34.928123 86.56875 36.9125ZM96.42812 29.803123L96.42812 27.787498L98.19375 27.787498L98.19375 29.803123L96.42812 29.803123ZM96.42812 42.1L96.42812 31.724998L98.19375 31.724998L98.19375 42.1L96.42812 42.1ZM107.14687 42.1L107.14687 40.7875Q106.1625 42.334373 104.24062 42.334373Q103.00625 42.334373 101.95937 41.646873Q100.92812 40.959373 100.35 39.740623Q99.7875 38.521873 99.7875 36.928123Q99.7875 35.365623 100.30312 34.1Q100.81875 32.834373 101.85 32.1625Q102.89687 31.490623 104.1625 31.490623Q105.1 31.490623 105.83437 31.896873Q106.56875 32.2875 107.0375 32.9125L107.0375 27.787498L108.77187 27.787498L108.77187 42.1L107.14687 42.1ZM101.58437 36.928123Q101.58437 38.9125 102.42812 39.896873Q103.27187 40.88125 104.4125 40.88125Q105.56875 40.88125 106.36562 39.94375Q107.17812 39.00625 107.17812 37.06875Q107.17812 34.94375 106.35 33.94375Q105.5375 32.94375 104.33437 32.94375Q103.1625 32.94375 102.36562 33.9125Q101.58437 34.865623 101.58437 36.928123ZM118.19375 40.81875Q117.20937 41.646873 116.30312 41.990623Q115.39687 42.334373 114.36562 42.334373Q112.6625 42.334373 111.74062 41.50625Q110.81875 40.6625 110.81875 39.365623Q110.81875 38.6 111.1625 37.975Q111.52187 37.35 112.08437 36.975Q112.64687 36.584373 113.35 36.38125Q113.86562 36.25625 114.9125 36.115623Q117.0375 35.865623 118.0375 35.521873Q118.05312 35.1625 118.05312 35.053123Q118.05312 33.990623 117.55312 33.5375Q116.88125 32.94375 115.55312 32.94375Q114.30312 32.94375 113.70937 33.38125Q113.13125 33.81875 112.85 34.928123L111.13125 34.69375Q111.36562 33.584373 111.89687 32.9125Q112.42812 32.225 113.44375 31.865623Q114.45937 31.490623 115.80312 31.490623Q117.13125 31.490623 117.95937 31.803123Q118.7875 32.115623 119.17812 32.6Q119.56875 33.06875 119.725 33.7875Q119.81875 34.240623 119.81875 35.4125L119.81875 37.75625Q119.81875 40.209373 119.92812 40.865623Q120.0375 41.50625 120.38125 42.1L118.5375 42.1Q118.27187 41.553123 118.19375 40.81875ZM118.0375 36.896873Q117.08437 37.2875 115.1625 37.553123Q114.08437 37.709373 113.63125 37.9125Q113.19375 38.1 112.94375 38.475Q112.69375 38.85 112.69375 39.31875Q112.69375 40.021873 113.225 40.490623Q113.75625 40.959373 114.7875 40.959373Q115.80312 40.959373 116.58437 40.521873Q117.38125 40.06875 117.75625 39.303123Q118.0375 38.69375 118.0375 37.5375L118.0375 36.896873ZM122.38125 42.1L122.38125 27.787498L124.13125 27.787498L124.13125 42.1L122.38125 42.1ZM132.42813 29.803123L132.42813 27.787498L134.19376 27.787498L134.19376 29.803123L132.42813 29.803123ZM132.42813 42.1L132.42813 31.724998L134.19376 31.724998L134.19376 42.1L132.42813 42.1ZM136.4125 42.1L136.4125 31.724998L138.00626 31.724998L138.00626 33.209373Q139.14688 31.490623 141.30313 31.490623Q142.24063 31.490623 143.02188 31.834373Q143.81876 32.1625 144.20938 32.709373Q144.6 33.25625 144.75626 34.00625Q144.85 34.50625 144.85 35.725L144.85 42.1L143.08438 42.1L143.08438 35.7875Q143.08438 34.709373 142.88126 34.178123Q142.67813 33.646873 142.14688 33.334373Q141.63126 33.021873 140.92813 33.021873Q139.80313 33.021873 138.99063 33.740623Q138.17813 34.44375 138.17813 36.428123L138.17813 42.1L136.4125 42.1ZM150.25626 40.521873L150.50626 42.084373Q149.77188 42.240623 149.17813 42.240623Q148.225 42.240623 147.69376 41.94375Q147.17813 41.63125 146.95938 41.146873Q146.74063 40.646873 146.74063 39.06875L146.74063 33.1L145.45938 33.1L145.45938 31.724998L146.74063 31.724998L146.74063 29.162498L148.49063 28.099998L148.49063 31.724998L150.25626 31.724998L150.25626 33.1L148.49063 33.1L148.49063 39.1625Q148.49063 39.9125 148.58438 40.13125Q148.67813 40.334373 148.88126 40.475Q149.1 40.6 149.49063 40.6Q149.77188 40.6 150.25626 40.521873ZM159.52188 38.75625L161.33438 38.990623Q160.9125 40.56875 159.74063 41.459373Q158.58438 42.334373 156.77188 42.334373Q154.50626 42.334373 153.1625 40.94375Q151.83438 39.5375 151.83438 37.00625Q151.83438 34.38125 153.17813 32.94375Q154.52188 31.490623 156.67813 31.490623Q158.75626 31.490623 160.06876 32.9125Q161.39688 34.31875 161.39688 36.896873Q161.39688 37.053123 161.38126 37.365623L153.64688 37.365623Q153.74063 39.06875 154.61563 39.975Q155.49063 40.88125 156.7875 40.88125Q157.75626 40.88125 158.42813 40.38125Q159.11563 39.865623 159.52188 38.75625ZM153.74063 35.9125L159.5375 35.9125Q159.42813 34.615623 158.88126 33.959373Q158.0375 32.94375 156.69376 32.94375Q155.49063 32.94375 154.6625 33.75625Q153.83438 34.553123 153.74063 35.9125ZM163.1 42.959373L164.80313 43.209373Q164.9125 44.00625 165.39688 44.365623Q166.05313 44.85 167.19376 44.85Q168.4125 44.85 169.06876 44.365623Q169.74063 43.88125 169.975 43.00625Q170.11563 42.459373 170.1 40.740623Q168.94376 42.1 167.225 42.1Q165.08438 42.1 163.9125 40.553123Q162.74063 39.00625 162.74063 36.85Q162.74063 35.365623 163.27188 34.115623Q163.81876 32.865623 164.83438 32.178123Q165.86563 31.490623 167.24063 31.490623Q169.06876 31.490623 170.27188 32.975L170.27188 31.724998L171.88126 31.724998L171.88126 40.69375Q171.88126 43.115623 171.38126 44.115623Q170.89688 45.13125 169.81876 45.709373Q168.75626 46.303123 167.19376 46.303123Q165.35 46.303123 164.19376 45.475Q163.05313 44.646873 163.1 42.959373ZM164.55313 36.725Q164.55313 38.771873 165.36563 39.709373Q166.17813 40.646873 167.39688 40.646873Q168.6 40.646873 169.4125 39.709373Q170.24063 38.771873 170.24063 36.7875Q170.24063 34.88125 169.39688 33.9125Q168.55313 32.94375 167.36563 32.94375Q166.19376 32.94375 165.36563 33.896873Q164.55313 34.85 164.55313 36.725ZM174.39688 42.1L174.39688 31.724998L175.975 31.724998L175.975 33.303123Q176.58438 32.19375 177.1 31.849998Q177.61563 31.490623 178.225 31.490623Q179.11563 31.490623 180.0375 32.053123L179.42813 33.69375Q178.7875 33.303123 178.14688 33.303123Q177.56876 33.303123 177.1 33.6625Q176.64688 34.00625 176.44376 34.615623Q176.1625 35.553123 176.1625 36.6625L176.1625 42.1L174.39688 42.1ZM188.19376 40.81875Q187.20938 41.646873 186.30313 41.990623Q185.39688 42.334373 184.36563 42.334373Q182.6625 42.334373 181.74063 41.50625Q180.81876 40.6625 180.81876 39.365623Q180.81876 38.6 181.1625 37.975Q181.52188 37.35 182.08438 36.975Q182.64688 36.584373 183.35 36.38125Q183.86563 36.25625 184.9125 36.115623Q187.0375 35.865623 188.0375 35.521873Q188.05313 35.1625 188.05313 35.053123Q188.05313 33.990623 187.55313 33.5375Q186.88126 32.94375 185.55313 32.94375Q184.30313 32.94375 183.70938 33.38125Q183.13126 33.81875 182.85 34.928123L181.13126 34.69375Q181.36563 33.584373 181.89688 32.9125Q182.42813 32.225 183.44376 31.865623Q184.45938 31.490623 185.80313 31.490623Q187.13126 31.490623 187.95938 31.803123Q188.7875 32.115623 189.17813 32.6Q189.56876 33.06875 189.725 33.7875Q189.81876 34.240623 189.81876 35.4125L189.81876 37.75625Q189.81876 40.209373 189.92813 40.865623Q190.0375 41.50625 190.38126 42.1L188.5375 42.1Q188.27188 41.553123 188.19376 40.81875ZM188.0375 36.896873Q187.08438 37.2875 185.1625 37.553123Q184.08438 37.709373 183.63126 37.9125Q183.19376 38.1 182.94376 38.475Q182.69376 38.85 182.69376 39.31875Q182.69376 40.021873 183.225 40.490623Q183.75626 40.959373 184.7875 40.959373Q185.80313 40.959373 186.58438 40.521873Q187.38126 40.06875 187.75626 39.303123Q188.0375 38.69375 188.0375 37.5375L188.0375 36.896873ZM196.25626 40.521873L196.50626 42.084373Q195.77188 42.240623 195.17813 42.240623Q194.225 42.240623 193.69376 41.94375Q193.17813 41.63125 192.95938 41.146873Q192.74063 40.646873 192.74063 39.06875L192.74063 33.1L191.45938 33.1L191.45938 31.724998L192.74063 31.724998L192.74063 29.162498L194.49063 28.099998L194.49063 31.724998L196.25626 31.724998L196.25626 33.1L194.49063 33.1L194.49063 39.1625Q194.49063 39.9125 194.58438 40.13125Q194.67813 40.334373 194.88126 40.475Q195.1 40.6 195.49063 40.6Q195.77188 40.6 196.25626 40.521873ZM198.42813 29.803123L198.42813 27.787498L200.19376 27.787498L200.19376 29.803123L198.42813 29.803123ZM198.42813 42.1L198.42813 31.724998L200.19376 31.724998L200.19376 42.1L198.42813 42.1ZM201.77188 36.9125Q201.77188 34.0375 203.36563 32.646873Q204.70938 31.490623 206.63126 31.490623Q208.77188 31.490623 210.11563 32.896873Q211.475 34.303123 211.475 36.771873Q211.475 38.771873 210.88126 39.928123Q210.2875 41.06875 209.13126 41.709373Q207.99063 42.334373 206.63126 42.334373Q204.44376 42.334373 203.1 40.94375Q201.77188 39.5375 201.77188 36.9125ZM203.56876 36.9125Q203.56876 38.9125 204.42813 39.896873Q205.30313 40.88125 206.63126 40.88125Q207.94376 40.88125 208.80313 39.896873Q209.67813 38.896873 209.67813 36.85Q209.67813 34.928123 208.80313 33.94375Q207.92813 32.94375 206.63126 32.94375Q205.30313 32.94375 204.42813 33.94375Q203.56876 34.928123 203.56876 36.9125ZM213.4125 42.1L213.4125 31.724998L215.00626 31.724998L215.00626 33.209373Q216.14688 31.490623 218.30313 31.490623Q219.24063 31.490623 220.02188 31.834373Q220.81876 32.1625 221.20938 32.709373Q221.6 33.25625 221.75626 34.00625Q221.85 34.50625 221.85 35.725L221.85 42.1L220.08438 42.1L220.08438 35.7875Q220.08438 34.709373 219.88126 34.178123Q219.67813 33.646873 219.14688 33.334373Q218.63126 33.021873 217.92813 33.021873Q216.80313 33.021873 215.99063 33.740623Q215.17813 34.44375 215.17813 36.428123L215.17813 42.1L213.4125 42.1ZM223.9125 33.725L223.9125 31.724998L225.9125 31.724998L225.9125 33.725L223.9125 33.725ZM223.9125 42.1L223.9125 40.1L225.9125 40.1L225.9125 42.1L223.9125 42.1ZM235.4125 46.06875L235.4125 31.724998L237.02188 31.724998L237.02188 33.06875Q237.58438 32.2875 238.2875 31.896873Q239.00626 31.490623 240.02188 31.490623Q241.35 31.490623 242.36563 32.178123Q243.38126 32.865623 243.89688 34.115623Q244.42813 35.35 244.42813 36.834373Q244.42813 38.428123 243.85 39.709373Q243.2875 40.975 242.19376 41.6625Q241.1 42.334373 239.89688 42.334373Q239.02188 42.334373 238.31876 41.959373Q237.63126 41.584373 237.17813 41.021873L237.17813 46.06875L235.4125 46.06875ZM237.00626 36.975Q237.00626 38.975 237.81876 39.928123Q238.63126 40.88125 239.7875 40.88125Q240.95938 40.88125 241.7875 39.896873Q242.63126 38.9125 242.63126 36.81875Q242.63126 34.85 241.80313 33.865623Q240.99063 32.865623 239.86563 32.865623Q238.74063 32.865623 237.86563 33.928123Q237.00626 34.975 237.00626 36.975ZM253.19376 40.81875Q252.20938 41.646873 251.30313 41.990623Q250.39688 42.334373 249.36563 42.334373Q247.6625 42.334373 246.74063 41.50625Q245.81876 40.6625 245.81876 39.365623Q245.81876 38.6 246.1625 37.975Q246.52188 37.35 247.08438 36.975Q247.64688 36.584373 248.35 36.38125Q248.86563 36.25625 249.9125 36.115623Q252.0375 35.865623 253.0375 35.521873Q253.05313 35.1625 253.05313 35.053123Q253.05313 33.990623 252.55313 33.5375Q251.88126 32.94375 250.55313 32.94375Q249.30313 32.94375 248.70938 33.38125Q248.13126 33.81875 247.85 34.928123L246.13126 34.69375Q246.36563 33.584373 246.89688 32.9125Q247.42813 32.225 248.44376 31.865623Q249.45938 31.490623 250.80313 31.490623Q252.13126 31.490623 252.95938 31.803123Q253.7875 32.115623 254.17813 32.6Q254.56876 33.06875 254.725 33.7875Q254.81876 34.240623 254.81876 35.4125L254.81876 37.75625Q254.81876 40.209373 254.92813 40.865623Q255.0375 41.50625 255.38126 42.1L253.5375 42.1Q253.27188 41.553123 253.19376 40.81875ZM253.0375 36.896873Q252.08438 37.2875 250.1625 37.553123Q249.08438 37.709373 248.63126 37.9125Q248.19376 38.1 247.94376 38.475Q247.69376 38.85 247.69376 39.31875Q247.69376 40.021873 248.225 40.490623Q248.75626 40.959373 249.7875 40.959373Q250.80313 40.959373 251.58438 40.521873Q252.38126 40.06875 252.75626 39.303123Q253.0375 38.69375 253.0375 37.5375L253.0375 36.896873ZM257.39688 42.1L257.39688 31.724998L258.975 31.724998L258.975 33.303123Q259.58438 32.19375 260.1 31.849998Q260.61563 31.490623 261.225 31.490623Q262.11563 31.490623 263.0375 32.053123L262.42813 33.69375Q261.7875 33.303123 261.14688 33.303123Q260.56876 33.303123 260.1 33.6625Q259.64688 34.00625 259.44376 34.615623Q259.1625 35.553123 259.1625 36.6625L259.1625 42.1L257.39688 42.1ZM271.19376 40.81875Q270.20938 41.646873 269.30313 41.990623Q268.39688 42.334373 267.36563 42.334373Q265.6625 42.334373 264.74063 41.50625Q263.81876 40.6625 263.81876 39.365623Q263.81876 38.6 264.1625 37.975Q264.52188 37.35 265.08438 36.975Q265.64688 36.584373 266.35 36.38125Q266.86563 36.25625 267.9125 36.115623Q270.0375 35.865623 271.0375 35.521873Q271.05313 35.1625 271.05313 35.053123Q271.05313 33.990623 270.55313 33.5375Q269.88126 32.94375 268.55313 32.94375Q267.30313 32.94375 266.70938 33.38125Q266.13126 33.81875 265.85 34.928123L264.13126 34.69375Q264.36563 33.584373 264.89688 32.9125Q265.42813 32.225 266.44376 31.865623Q267.45938 31.490623 268.80313 31.490623Q270.13126 31.490623 270.95938 31.803123Q271.7875 32.115623 272.17813 32.6Q272.56876 33.06875 272.725 33.7875Q272.81876 34.240623 272.81876 35.4125L272.81876 37.75625Q272.81876 40.209373 272.92813 40.865623Q273.0375 41.50625 273.38126 42.1L271.5375 42.1Q271.27188 41.553123 271.19376 40.81875ZM271.0375 36.896873Q270.08438 37.2875 268.1625 37.553123Q267.08438 37.709373 266.63126 37.9125Q266.19376 38.1 265.94376 38.475Q265.69376 38.85 265.69376 39.31875Q265.69376 40.021873 266.225 40.490623Q266.75626 40.959373 267.7875 40.959373Q268.80313 40.959373 269.58438 40.521873Q270.38126 40.06875 270.75626 39.303123Q271.0375 38.69375 271.0375 37.5375L271.0375 36.896873ZM275.38126 42.1L275.38126 27.787498L277.13126 27.787498L277.13126 42.1L275.38126 42.1ZM279.38126 42.1L279.38126 27.787498L281.13126 27.787498L281.13126 42.1L279.38126 42.1ZM290.52188 38.75625L292.33438 38.990623Q291.9125 40.56875 290.74063 41.459373Q289.58438 42.334373 287.77188 42.334373Q285.50626 42.334373 284.1625 40.94375Q282.83438 39.5375 282.83438 37.00625Q282.83438 34.38125 284.17813 32.94375Q285.52188 31.490623 287.67813 31.490623Q289.75626 31.490623 291.06876 32.9125Q292.39688 34.31875 292.39688 36.896873Q292.39688 37.053123 292.38126 37.365623L284.64688 37.365623Q284.74063 39.06875 285.61563 39.975Q286.49063 40.88125 287.7875 40.88125Q288.75626 40.88125 289.42813 40.38125Q290.11563 39.865623 290.52188 38.75625ZM284.74063 35.9125L290.5375 35.9125Q290.42813 34.615623 289.88126 33.959373Q289.0375 32.94375 287.69376 32.94375Q286.49063 32.94375 285.6625 33.75625Q284.83438 34.553123 284.74063 35.9125ZM294.38126 42.1L294.38126 27.787498L296.13126 27.787498L296.13126 42.1L294.38126 42.1ZM311.52188 38.75625L313.33438 38.990623Q312.9125 40.56875 311.74063 41.459373Q310.58438 42.334373 308.77188 42.334373Q306.50626 42.334373 305.1625 40.94375Q303.83438 39.5375 303.83438 37.00625Q303.83438 34.38125 305.17813 32.94375Q306.52188 31.490623 308.67813 31.490623Q310.75626 31.490623 312.06876 32.9125Q313.39688 34.31875 313.39688 36.896873Q313.39688 37.053123 313.38126 37.365623L305.64688 37.365623Q305.74063 39.06875 306.61563 39.975Q307.49063 40.88125 308.7875 40.88125Q309.75626 40.88125 310.42813 40.38125Q311.11563 39.865623 311.52188 38.75625ZM305.74063 35.9125L311.5375 35.9125Q311.42813 34.615623 310.88126 33.959373Q310.0375 32.94375 308.69376 32.94375Q307.49063 32.94375 306.6625 33.75625Q305.83438 34.553123 305.74063 35.9125ZM314.24063 42.1L318.0375 36.709373L314.5375 31.724998L316.725 31.724998L318.31876 34.1625Q318.77188 34.85 319.0375 35.31875Q319.475 34.678123 319.83438 34.178123L321.58438 31.724998L323.67813 31.724998L320.1 36.615623L323.95938 42.1L321.80313 42.1L319.6625 38.88125L319.1 38.00625L316.38126 42.1L314.24063 42.1ZM331.52188 38.75625L333.33438 38.990623Q332.9125 40.56875 331.74063 41.459373Q330.58438 42.334373 328.77188 42.334373Q326.50626 42.334373 325.1625 40.94375Q323.83438 39.5375 323.83438 37.00625Q323.83438 34.38125 325.17813 32.94375Q326.52188 31.490623 328.67813 31.490623Q330.75626 31.490623 332.06876 32.9125Q333.39688 34.31875 333.39688 36.896873Q333.39688 37.053123 333.38126 37.365623L325.64688 37.365623Q325.74063 39.06875 326.61563 39.975Q327.49063 40.88125 328.7875 40.88125Q329.75626 40.88125 330.42813 40.38125Q331.11563 39.865623 331.52188 38.75625ZM325.74063 35.9125L331.5375 35.9125Q331.42813 34.615623 330.88126 33.959373Q330.0375 32.94375 328.69376 32.94375Q327.49063 32.94375 326.6625 33.75625Q325.83438 34.553123 325.74063 35.9125ZM342.19376 38.303123L343.9125 38.521873Q343.63126 40.31875 342.45938 41.334373Q341.30313 42.334373 339.6 42.334373Q337.475 42.334373 336.17813 40.94375Q334.88126 39.553123 334.88126 36.959373Q334.88126 35.271873 335.42813 34.021873Q335.99063 32.75625 337.13126 32.13125Q338.27188 31.490623 339.61563 31.490623Q341.30313 31.490623 342.36563 32.35Q343.44376 33.209373 343.75626 34.771873L342.0375 35.0375Q341.80313 33.990623 341.17813 33.475Q340.55313 32.94375 339.67813 32.94375Q338.35 32.94375 337.52188 33.896873Q336.69376 34.85 336.69376 36.896873Q336.69376 38.990623 337.49063 39.94375Q338.2875 40.88125 339.58438 40.88125Q340.61563 40.88125 341.30313 40.25625Q342.00626 39.615623 342.19376 38.303123ZM352.20938 42.1L352.20938 40.56875Q351.00626 42.334373 348.92813 42.334373Q348.00626 42.334373 347.20938 41.990623Q346.4125 41.63125 346.02188 41.1Q345.64688 40.56875 345.49063 39.7875Q345.38126 39.271873 345.38126 38.146873L345.38126 31.724998L347.13126 31.724998L347.13126 37.475Q347.13126 38.85 347.24063 39.334373Q347.4125 40.021873 347.94376 40.428123Q348.49063 40.81875 349.27188 40.81875Q350.06876 40.81875 350.75626 40.4125Q351.45938 40.00625 351.74063 39.31875Q352.0375 38.615623 352.0375 37.2875L352.0375 31.724998L353.7875 31.724998L353.7875 42.1L352.20938 42.1ZM359.25626 40.521873L359.50626 42.084373Q358.77188 42.240623 358.17813 42.240623Q357.225 42.240623 356.69376 41.94375Q356.17813 41.63125 355.95938 41.146873Q355.74063 40.646873 355.74063 39.06875L355.74063 33.1L354.45938 33.1L354.45938 31.724998L355.74063 31.724998L355.74063 29.162498L357.49063 28.099998L357.49063 31.724998L359.25626 31.724998L359.25626 33.1L357.49063 33.1L357.49063 39.1625Q357.49063 39.9125 357.58438 40.13125Q357.67813 40.334373 357.88126 40.475Q358.1 40.6 358.49063 40.6Q358.77188 40.6 359.25626 40.521873ZM361.42813 29.803123L361.42813 27.787498L363.19376 27.787498L363.19376 29.803123L361.42813 29.803123ZM361.42813 42.1L361.42813 31.724998L363.19376 31.724998L363.19376 42.1L361.42813 42.1ZM364.77188 36.9125Q364.77188 34.0375 366.36563 32.646873Q367.70938 31.490623 369.63126 31.490623Q371.77188 31.490623 373.11563 32.896873Q374.475 34.303123 374.475 36.771873Q374.475 38.771873 373.88126 39.928123Q373.2875 41.06875 372.13126 41.709373Q370.99063 42.334373 369.63126 42.334373Q367.44376 42.334373 366.1 40.94375Q364.77188 39.5375 364.77188 36.9125ZM366.56876 36.9125Q366.56876 38.9125 367.42813 39.896873Q368.30313 40.88125 369.63126 40.88125Q370.94376 40.88125 371.80313 39.896873Q372.67813 38.896873 372.67813 36.85Q372.67813 34.928123 371.80313 33.94375Q370.92813 32.94375 369.63126 32.94375Q368.30313 32.94375 367.42813 33.94375Q366.56876 34.928123 366.56876 36.9125ZM376.4125 42.1L376.4125 31.724998L378.00626 31.724998L378.00626 33.209373Q379.14688 31.490623 381.30313 31.490623Q382.24063 31.490623 383.02188 31.834373Q383.81876 32.1625 384.20938 32.709373Q384.6 33.25625 384.75626 34.00625Q384.85 34.50625 384.85 35.725L384.85 42.1L383.08438 42.1L383.08438 35.7875Q383.08438 34.709373 382.88126 34.178123Q382.67813 33.646873 382.14688 33.334373Q381.63126 33.021873 380.92813 33.021873Q379.80313 33.021873 378.99063 33.740623Q378.17813 34.44375 378.17813 36.428123L378.17813 42.1L376.4125 42.1ZM391.77188 36.9125Q391.77188 34.0375 393.36563 32.646873Q394.70938 31.490623 396.63126 31.490623Q398.77188 31.490623 400.11563 32.896873Q401.475 34.303123 401.475 36.771873Q401.475 38.771873 400.88126 39.928123Q400.2875 41.06875 399.13126 41.709373Q397.99063 42.334373 396.63126 42.334373Q394.44376 42.334373 393.1 40.94375Q391.77188 39.5375 391.77188 36.9125ZM393.56876 36.9125Q393.56876 38.9125 394.42813 39.896873Q395.30313 40.88125 396.63126 40.88125Q397.94376 40.88125 398.80313 39.896873Q399.67813 38.896873 399.67813 36.85Q399.67813 34.928123 398.80313 33.94375Q397.92813 32.94375 396.63126 32.94375Q395.30313 32.94375 394.42813 33.94375Q393.56876 34.928123 393.56876 36.9125ZM403.4125 42.1L403.4125 31.724998L405.00626 31.724998L405.00626 33.209373Q406.14688 31.490623 408.30313 31.490623Q409.24063 31.490623 410.02188 31.834373Q410.81876 32.1625 411.20938 32.709373Q411.6 33.25625 411.75626 34.00625Q411.85 34.50625 411.85 35.725L411.85 42.1L410.08438 42.1L410.08438 35.7875Q410.08438 34.709373 409.88126 34.178123Q409.67813 33.646873 409.14688 33.334373Q408.63126 33.021873 407.92813 33.021873Q406.80313 33.021873 405.99063 33.740623Q405.17813 34.44375 405.17813 36.428123L405.17813 42.1L403.4125 42.1ZM426.35 36.490623L426.35 34.803123L432.4125 34.7875L432.4125 40.1Q431.00626 41.225 429.52188 41.7875Q428.0375 42.35 426.475 42.35Q424.36563 42.35 422.64688 41.44375Q420.92813 40.5375 420.0375 38.834373Q419.1625 37.115623 419.1625 35.00625Q419.1625 32.9125 420.0375 31.115623Q420.9125 29.303123 422.55313 28.428123Q424.19376 27.537498 426.33438 27.537498Q427.88126 27.537498 429.13126 28.037498Q430.39688 28.537498 431.1 29.443748Q431.81876 30.334373 432.19376 31.787498L430.49063 32.25625Q430.1625 31.162498 429.67813 30.537498Q429.20938 29.912498 428.31876 29.537498Q427.42813 29.162498 426.35 29.162498Q425.0375 29.162498 424.08438 29.553123Q423.14688 29.943748 422.56876 30.599998Q421.99063 31.240623 421.6625 32.00625Q421.11563 33.334373 421.11563 34.896873Q421.11563 36.803123 421.77188 38.1Q422.44376 39.38125 423.69376 40.00625Q424.95938 40.63125 426.36563 40.63125Q427.6 40.63125 428.77188 40.1625Q429.94376 39.69375 430.55313 39.146873L430.55313 36.490623L426.35 36.490623ZM435.64688 42.1L435.64688 27.787498L441.0375 27.787498Q442.475 27.787498 443.225 27.912498Q444.27188 28.099998 444.99063 28.599998Q445.70938 29.084373 446.13126 29.974998Q446.56876 30.865623 446.56876 31.928123Q446.56876 33.75625 445.39688 35.021873Q444.24063 36.271873 441.20938 36.271873L437.5375 36.271873L437.5375 42.1L435.64688 42.1ZM437.5375 34.584373L441.24063 34.584373Q443.06876 34.584373 443.83438 33.9125Q444.61563 33.225 444.61563 31.974998Q444.61563 31.084373 444.1625 30.443748Q443.70938 29.803123 442.975 29.599998Q442.49063 29.474998 441.19376 29.474998L437.5375 29.474998L437.5375 34.584373ZM458.0375 27.787498L459.92813 27.787498L459.92813 36.053123Q459.92813 38.209373 459.44376 39.490623Q458.95938 40.75625 457.67813 41.553123Q456.4125 42.35 454.33438 42.35Q452.31876 42.35 451.0375 41.6625Q449.77188 40.959373 449.225 39.646873Q448.67813 38.334373 448.67813 36.053123L448.67813 27.787498L450.56876 27.787498L450.56876 36.0375Q450.56876 37.9125 450.9125 38.803123Q451.25626 39.678123 452.1 40.1625Q452.94376 40.63125 454.17813 40.63125Q456.25626 40.63125 457.14688 39.69375Q458.0375 38.740623 458.0375 36.0375L458.0375 27.787498Z" fill-rule="nonzero"/><path fill="#757575" d="M28.2875 66.1L28.2875 53.475L23.56875 53.475L23.56875 51.7875L34.9125 51.7875L34.9125 53.475L30.178125 53.475L30.178125 66.1L28.2875 66.1ZM35.771873 60.9125Q35.771873 58.0375 37.365623 56.646873Q38.709373 55.490623 40.63125 55.490623Q42.771873 55.490623 44.115623 56.896873Q45.475 58.303123 45.475 60.771873Q45.475 62.771873 44.88125 63.928123Q44.2875 65.06875 43.13125 65.70937Q41.990623 66.33437 40.63125 66.33437Q38.44375 66.33437 37.1 64.94375Q35.771873 63.5375 35.771873 60.9125ZM37.56875 60.9125Q37.56875 62.9125 38.428123 63.896873Q39.303123 64.88125 40.63125 64.88125Q41.94375 64.88125 42.803123 63.896873Q43.678123 62.896873 43.678123 60.85Q43.678123 58.928123 42.803123 57.94375Q41.928123 56.94375 40.63125 56.94375Q39.303123 56.94375 38.428123 57.94375Q37.56875 58.928123 37.56875 60.9125ZM51.25625 64.52187L51.50625 66.08437Q50.771873 66.24062 50.178123 66.24062Q49.225 66.24062 48.69375 65.94375Q48.178123 65.63125 47.959373 65.14687Q47.740623 64.64687 47.740623 63.06875L47.740623 57.1L46.459373 57.1L46.459373 55.725L47.740623 55.725L47.740623 53.1625L49.490623 52.1L49.490623 55.725L51.25625 55.725L51.25625 57.1L49.490623 57.1L49.490623 63.1625Q49.490623 63.9125 49.584373 64.13125Q49.678123 64.33437 49.88125 64.475Q50.1 64.6 50.490623 64.6Q50.771873 64.6 51.25625 64.52187ZM60.19375 64.81875Q59.209373 65.64687 58.303123 65.99062Q57.396873 66.33437 56.365623 66.33437Q54.6625 66.33437 53.740623 65.50625Q52.81875 64.6625 52.81875 63.365623Q52.81875 62.6 53.1625 61.975Q53.521873 61.35 54.084373 60.975Q54.646873 60.584373 55.35 60.38125Q55.865623 60.25625 56.9125 60.115623Q59.0375 59.865623 60.0375 59.521873Q60.053123 59.1625 60.053123 59.053123Q60.053123 57.990623 59.553123 57.5375Q58.88125 56.94375 57.553123 56.94375Q56.303123 56.94375 55.709373 57.38125Q55.13125 57.81875 54.85 58.928123L53.13125 58.69375Q53.365623 57.584373 53.896873 56.9125Q54.428123 56.225 55.44375 55.865623Q56.459373 55.490623 57.803123 55.490623Q59.13125 55.490623 59.959373 55.803123Q60.7875 56.115623 61.178123 56.6Q61.56875 57.06875 61.725 57.7875Q61.81875 58.240623 61.81875 59.4125L61.81875 61.75625Q61.81875 64.20937 61.928123 64.86562Q62.0375 65.50625 62.38125 66.1L60.5375 66.1Q60.271873 65.55312 60.19375 64.81875ZM60.0375 60.896873Q59.084373 61.2875 57.1625 61.553123Q56.084373 61.709373 55.63125 61.9125Q55.19375 62.1 54.94375 62.475Q54.69375 62.85 54.69375 63.31875Q54.69375 64.02187 55.225 64.49062Q55.75625 64.95937 56.7875 64.95937Q57.803123 64.95937 58.584373 64.52187Q59.38125 64.06875 59.75625 63.303123Q60.0375 62.69375 60.0375 61.5375L60.0375 60.896873ZM64.38125 66.1L64.38125 51.7875L66.13125 51.7875L66.13125 66.1L64.38125 66.1ZM76.33437 66.1L73.1625 55.725L74.975 55.725L76.63125 61.709373L77.24062 63.94375Q77.2875 63.771873 77.77187 61.803123L79.42812 55.725L81.24062 55.725L82.7875 61.740623L83.30312 63.725L83.89687 61.725L85.67812 55.725L87.38125 55.725L84.14687 66.1L82.31875 66.1L80.6625 59.88125L80.27187 58.115623L78.1625 66.1L76.33437 66.1ZM88.77187 60.9125Q88.77187 58.0375 90.36562 56.646873Q91.70937 55.490623 93.63125 55.490623Q95.77187 55.490623 97.11562 56.896873Q98.475 58.303123 98.475 60.771873Q98.475 62.771873 97.88125 63.928123Q97.2875 65.06875 96.13125 65.70937Q94.99062 66.33437 93.63125 66.33437Q91.44375 66.33437 90.1 64.94375Q88.77187 63.5375 88.77187 60.9125ZM90.56875 60.9125Q90.56875 62.9125 91.42812 63.896873Q92.30312 64.88125 93.63125 64.88125Q94.94375 64.88125 95.80312 63.896873Q96.67812 62.896873 96.67812 60.85Q96.67812 58.928123 95.80312 57.94375Q94.92812 56.94375 93.63125 56.94375Q92.30312 56.94375 91.42812 57.94375Q90.56875 58.928123 90.56875 60.9125ZM100.39687 66.1L100.39687 55.725L101.975 55.725L101.975 57.303123Q102.58437 56.19375 103.1 55.85Q103.61562 55.490623 104.225 55.490623Q105.11562 55.490623 106.0375 56.053123L105.42812 57.69375Q104.7875 57.303123 104.14687 57.303123Q103.56875 57.303123 103.1 57.6625Q102.64687 58.00625 102.44375 58.615623Q102.1625 59.553123 102.1625 60.6625L102.1625 66.1L100.39687 66.1ZM107.42812 66.1L107.42812 51.7875L109.19375 51.7875L109.19375 59.94375L113.35 55.725L115.61562 55.725L111.6625 59.56875L116.02187 66.1L113.85 66.1L110.42812 60.803123L109.19375 61.990623L109.19375 66.1L107.42812 66.1ZM117.38125 66.1L117.38125 51.7875L119.13125 51.7875L119.13125 66.1L117.38125 66.1ZM120.77187 60.9125Q120.77187 58.0375 122.36562 56.646873Q123.70937 55.490623 125.63125 55.490623Q127.77187 55.490623 129.11563 56.896873Q130.475 58.303123 130.475 60.771873Q130.475 62.771873 129.88126 63.928123Q129.2875 65.06875 128.13126 65.70937Q126.99062 66.33437 125.63125 66.33437Q123.44375 66.33437 122.1 64.94375Q120.77187 63.5375 120.77187 60.9125ZM122.56875 60.9125Q122.56875 62.9125 123.42812 63.896873Q124.30312 64.88125 125.63125 64.88125Q126.94375 64.88125 127.80312 63.896873Q128.67813 62.896873 128.67813 60.85Q128.67813 58.928123 127.80312 57.94375Q126.92812 56.94375 125.63125 56.94375Q124.30312 56.94375 123.42812 57.94375Q122.56875 58.928123 122.56875 60.9125ZM139.19376 64.81875Q138.20938 65.64687 137.30313 65.99062Q136.39688 66.33437 135.36563 66.33437Q133.6625 66.33437 132.74063 65.50625Q131.81876 64.6625 131.81876 63.365623Q131.81876 62.6 132.1625 61.975Q132.52188 61.35 133.08438 60.975Q133.64688 60.584373 134.35 60.38125Q134.86563 60.25625 135.9125 60.115623Q138.0375 59.865623 139.0375 59.521873Q139.05313 59.1625 139.05313 59.053123Q139.05313 57.990623 138.55313 57.5375Q137.88126 56.94375 136.55313 56.94375Q135.30313 56.94375 134.70938 57.38125Q134.13126 57.81875 133.85 58.928123L132.13126 58.69375Q132.36563 57.584373 132.89688 56.9125Q133.42813 56.225 134.44376 55.865623Q135.45938 55.490623 136.80313 55.490623Q138.13126 55.490623 138.95938 55.803123Q139.7875 56.115623 140.17813 56.6Q140.56876 57.06875 140.725 57.7875Q140.81876 58.240623 140.81876 59.4125L140.81876 61.75625Q140.81876 64.20937 140.92813 64.86562Q141.0375 65.50625 141.38126 66.1L139.5375 66.1Q139.27188 65.55312 139.19376 64.81875ZM139.0375 60.896873Q138.08438 61.2875 136.1625 61.553123Q135.08438 61.709373 134.63126 61.9125Q134.19376 62.1 133.94376 62.475Q133.69376 62.85 133.69376 63.31875Q133.69376 64.02187 134.225 64.49062Q134.75626 64.95937 135.7875 64.95937Q136.80313 64.95937 137.58438 64.52187Q138.38126 64.06875 138.75626 63.303123Q139.0375 62.69375 139.0375 61.5375L139.0375 60.896873ZM150.14688 66.1L150.14688 64.7875Q149.1625 66.33437 147.24063 66.33437Q146.00626 66.33437 144.95938 65.64687Q143.92813 64.95937 143.35 63.740623Q142.7875 62.521873 142.7875 60.928123Q142.7875 59.365623 143.30313 58.1Q143.81876 56.834373 144.85 56.1625Q145.89688 55.490623 147.1625 55.490623Q148.1 55.490623 148.83438 55.896873Q149.56876 56.2875 150.0375 56.9125L150.0375 51.7875L151.77188 51.7875L151.77188 66.1L150.14688 66.1ZM144.58438 60.928123Q144.58438 62.9125 145.42813 63.896873Q146.27188 64.88125 147.4125 64.88125Q148.56876 64.88125 149.36563 63.94375Q150.17813 63.00625 150.17813 61.06875Q150.17813 58.94375 149.35 57.94375Q148.5375 56.94375 147.33438 56.94375Q146.1625 56.94375 145.36563 57.9125Q144.58438 58.865623 144.58438 60.928123ZM154.9125 57.725L154.9125 55.725L156.9125 55.725L156.9125 57.725L154.9125 57.725ZM154.9125 66.1L154.9125 64.1L156.9125 64.1L156.9125 66.1L154.9125 66.1ZM172.55313 66.1L170.7875 66.1L170.7875 54.896873Q170.1625 55.50625 169.13126 56.115623Q168.1 56.709373 167.27188 57.021873L167.27188 55.31875Q168.75626 54.63125 169.85 53.646873Q170.95938 52.646873 171.4125 51.725L172.55313 51.725L172.55313 66.1ZM176.92813 59.0375Q176.92813 56.50625 177.44376 54.959373Q177.975 53.396873 179.00626 52.56875Q180.0375 51.725 181.6 51.725Q182.75626 51.725 183.61563 52.19375Q184.49063 52.646873 185.05313 53.521873Q185.61563 54.396873 185.94376 55.6625Q186.27188 56.9125 186.27188 59.0375Q186.27188 61.553123 185.74063 63.1Q185.225 64.64687 184.19376 65.50625Q183.17813 66.35 181.6 66.35Q179.52188 66.35 178.35 64.86562Q176.92813 63.06875 176.92813 59.0375ZM178.74063 59.0375Q178.74063 62.56875 179.55313 63.740623Q180.38126 64.89687 181.6 64.89687Q182.80313 64.89687 183.63126 63.725Q184.45938 62.553123 184.45938 59.0375Q184.45938 55.50625 183.63126 54.35Q182.80313 53.178123 181.58438 53.178123Q180.36563 53.178123 179.64688 54.209373Q178.74063 55.50625 178.74063 59.0375ZM189.42813 59.365623L187.63126 59.365623L191.06876 51.5375L192.49063 51.5375L195.95938 59.365623L194.19376 59.365623L191.77188 53.5375L189.42813 59.365623ZM196.19376 62.7875L197.88126 62.63125Q198.1 63.81875 198.69376 64.36562Q199.30313 64.89687 200.25626 64.89687Q201.06876 64.89687 201.67813 64.5375Q202.2875 64.1625 202.67813 63.5375Q203.06876 62.9125 203.33438 61.865623Q203.6 60.803123 203.6 59.709373Q203.6 59.6 203.58438 59.365623Q203.05313 60.19375 202.14688 60.725Q201.24063 61.240623 200.1625 61.240623Q198.39688 61.240623 197.1625 59.959373Q195.92813 58.6625 195.92813 56.553123Q195.92813 54.38125 197.20938 53.053123Q198.50626 51.725 200.42813 51.725Q201.83438 51.725 202.99063 52.475Q204.14688 53.225 204.74063 54.615623Q205.35 56.00625 205.35 58.646873Q205.35 61.396873 204.74063 63.021873Q204.14688 64.64687 202.975 65.50625Q201.80313 66.35 200.225 66.35Q198.5375 66.35 197.475 65.4125Q196.4125 64.475 196.19376 62.7875ZM203.39688 56.475Q203.39688 54.959373 202.58438 54.06875Q201.7875 53.178123 200.64688 53.178123Q199.475 53.178123 198.6 54.146873Q197.74063 55.1 197.74063 56.615623Q197.74063 57.990623 198.55313 58.85Q199.38126 59.69375 200.6 59.69375Q201.81876 59.69375 202.6 58.85Q203.39688 57.990623 203.39688 56.475ZM207.88126 57.725L207.88126 55.725L209.88126 55.725L209.88126 57.725L207.88126 57.725ZM207.88126 66.1L207.88126 64.1L209.88126 64.1L209.88126 66.1Q209.88126 67.20937 209.49063 67.88125Q209.1 68.56875 208.25626 68.92812L207.75626 68.17812Q208.31876 67.94375 208.58438 67.45937Q208.85 66.99062 208.88126 66.1L207.88126 66.1ZM225.55313 66.1L223.7875 66.1L223.7875 54.896873Q223.1625 55.50625 222.13126 56.115623Q221.1 56.709373 220.27188 57.021873L220.27188 55.31875Q221.75626 54.63125 222.85 53.646873Q223.95938 52.646873 224.4125 51.725L225.55313 51.725L225.55313 66.1ZM229.92813 59.0375Q229.92813 56.50625 230.44376 54.959373Q230.975 53.396873 232.00626 52.56875Q233.0375 51.725 234.6 51.725Q235.75626 51.725 236.61563 52.19375Q237.49063 52.646873 238.05313 53.521873Q238.61563 54.396873 238.94376 55.6625Q239.27188 56.9125 239.27188 59.0375Q239.27188 61.553123 238.74063 63.1Q238.225 64.64687 237.19376 65.50625Q236.17813 66.35 234.6 66.35Q232.52188 66.35 231.35 64.86562Q229.92813 63.06875 229.92813 59.0375ZM231.74063 59.0375Q231.74063 62.56875 232.55313 63.740623Q233.38126 64.89687 234.6 64.89687Q235.80313 64.89687 236.63126 63.725Q237.45938 62.553123 237.45938 59.0375Q237.45938 55.50625 236.63126 54.35Q235.80313 53.178123 234.58438 53.178123Q233.36563 53.178123 232.64688 54.209373Q231.74063 55.50625 231.74063 59.0375ZM242.42813 59.365623L240.63126 59.365623L244.06876 51.5375L245.49063 51.5375L248.95938 59.365623L247.19376 59.365623L244.77188 53.5375L242.42813 59.365623ZM255.55313 66.1L253.7875 66.1L253.7875 54.896873Q253.1625 55.50625 252.13126 56.115623Q251.1 56.709373 250.27188 57.021873L250.27188 55.31875Q251.75626 54.63125 252.85 53.646873Q253.95938 52.646873 254.4125 51.725L255.55313 51.725L255.55313 66.1ZM259.92813 59.0375Q259.92813 56.50625 260.44376 54.959373Q260.975 53.396873 262.00626 52.56875Q263.0375 51.725 264.6 51.725Q265.75626 51.725 266.61563 52.19375Q267.49063 52.646873 268.05313 53.521873Q268.61563 54.396873 268.94376 55.6625Q269.27188 56.9125 269.27188 59.0375Q269.27188 61.553123 268.74063 63.1Q268.225 64.64687 267.19376 65.50625Q266.17813 66.35 264.6 66.35Q262.52188 66.35 261.35 64.86562Q259.92813 63.06875 259.92813 59.0375ZM261.74063 59.0375Q261.74063 62.56875 262.55313 63.740623Q263.38126 64.89687 264.6 64.89687Q265.80313 64.89687 266.63126 63.725Q267.45938 62.553123 267.45938 59.0375Q267.45938 55.50625 266.63126 54.35Q265.80313 53.178123 264.58438 53.178123Q263.36563 53.178123 262.64688 54.209373Q261.74063 55.50625 261.74063 59.0375ZM271.88126 57.725L271.88126 55.725L273.88126 55.725L273.88126 57.725L271.88126 57.725ZM271.88126 66.1L271.88126 64.1L273.88126 64.1L273.88126 66.1Q273.88126 67.20937 273.49063 67.88125Q273.1 68.56875 272.25626 68.92812L271.75626 68.17812Q272.31876 67.94375 272.58438 67.45937Q272.85 66.99062 272.88126 66.1L271.88126 66.1ZM289.55313 66.1L287.7875 66.1L287.7875 54.896873Q287.1625 55.50625 286.13126 56.115623Q285.1 56.709373 284.27188 57.021873L284.27188 55.31875Q285.75626 54.63125 286.85 53.646873Q287.95938 52.646873 288.4125 51.725L289.55313 51.725L289.55313 66.1ZM293.92813 59.0375Q293.92813 56.50625 294.44376 54.959373Q294.975 53.396873 296.00626 52.56875Q297.0375 51.725 298.6 51.725Q299.75626 51.725 300.61563 52.19375Q301.49063 52.646873 302.05313 53.521873Q302.61563 54.396873 302.94376 55.6625Q303.27188 56.9125 303.27188 59.0375Q303.27188 61.553123 302.74063 63.1Q302.225 64.64687 301.19376 65.50625Q300.17813 66.35 298.6 66.35Q296.52188 66.35 295.35 64.86562Q293.92813 63.06875 293.92813 59.0375ZM295.74063 59.0375Q295.74063 62.56875 296.55313 63.740623Q297.38126 64.89687 298.6 64.89687Q299.80313 64.89687 300.63126 63.725Q301.45938 62.553123 301.45938 59.0375Q301.45938 55.50625 300.63126 54.35Q299.80313 53.178123 298.58438 53.178123Q297.36563 53.178123 296.64688 54.209373Q295.74063 55.50625 295.74063 59.0375ZM306.42813 59.365623L304.63126 59.365623L308.06876 51.5375L309.49063 51.5375L312.95938 59.365623L311.19376 59.365623L308.77188 53.5375L306.42813 59.365623ZM319.55313 66.1L317.7875 66.1L317.7875 54.896873Q317.1625 55.50625 316.13126 56.115623Q315.1 56.709373 314.27188 57.021873L314.27188 55.31875Q315.75626 54.63125 316.85 53.646873Q317.95938 52.646873 318.4125 51.725L319.55313 51.725L319.55313 66.1ZM330.55313 66.1L328.7875 66.1L328.7875 54.896873Q328.1625 55.50625 327.13126 56.115623Q326.1 56.709373 325.27188 57.021873L325.27188 55.31875Q326.75626 54.63125 327.85 53.646873Q328.95938 52.646873 329.4125 51.725L330.55313 51.725L330.55313 66.1ZM345.25626 64.52187L345.50626 66.08437Q344.77188 66.24062 344.17813 66.24062Q343.225 66.24062 342.69376 65.94375Q342.17813 65.63125 341.95938 65.14687Q341.74063 64.64687 341.74063 63.06875L341.74063 57.1L340.45938 57.1L340.45938 55.725L341.74063 55.725L341.74063 53.1625L343.49063 52.1L343.49063 55.725L345.25626 55.725L345.25626 57.1L343.49063 57.1L343.49063 63.1625Q343.49063 63.9125 343.58438 64.13125Q343.67813 64.33437 343.88126 64.475Q344.1 64.6 344.49063 64.6Q344.77188 64.6 345.25626 64.52187ZM347.39688 66.1L347.39688 55.725L348.975 55.725L348.975 57.303123Q349.58438 56.19375 350.1 55.85Q350.61563 55.490623 351.225 55.490623Q352.11563 55.490623 353.0375 56.053123L352.42813 57.69375Q351.7875 57.303123 351.14688 57.303123Q350.56876 57.303123 350.1 57.6625Q349.64688 58.00625 349.44376 58.615623Q349.1625 59.553123 349.1625 60.6625L349.1625 66.1L347.39688 66.1ZM361.19376 64.81875Q360.20938 65.64687 359.30313 65.99062Q358.39688 66.33437 357.36563 66.33437Q355.6625 66.33437 354.74063 65.50625Q353.81876 64.6625 353.81876 63.365623Q353.81876 62.6 354.1625 61.975Q354.52188 61.35 355.08438 60.975Q355.64688 60.584373 356.35 60.38125Q356.86563 60.25625 357.9125 60.115623Q360.0375 59.865623 361.0375 59.521873Q361.05313 59.1625 361.05313 59.053123Q361.05313 57.990623 360.55313 57.5375Q359.88126 56.94375 358.55313 56.94375Q357.30313 56.94375 356.70938 57.38125Q356.13126 57.81875 355.85 58.928123L354.13126 58.69375Q354.36563 57.584373 354.89688 56.9125Q355.42813 56.225 356.44376 55.865623Q357.45938 55.490623 358.80313 55.490623Q360.13126 55.490623 360.95938 55.803123Q361.7875 56.115623 362.17813 56.6Q362.56876 57.06875 362.725 57.7875Q362.81876 58.240623 362.81876 59.4125L362.81876 61.75625Q362.81876 64.20937 362.92813 64.86562Q363.0375 65.50625 363.38126 66.1L361.5375 66.1Q361.27188 65.55312 361.19376 64.81875ZM361.0375 60.896873Q360.08438 61.2875 358.1625 61.553123Q357.08438 61.709373 356.63126 61.9125Q356.19376 62.1 355.94376 62.475Q355.69376 62.85 355.69376 63.31875Q355.69376 64.02187 356.225 64.49062Q356.75626 64.95937 357.7875 64.95937Q358.80313 64.95937 359.58438 64.52187Q360.38126 64.06875 360.75626 63.303123Q361.0375 62.69375 361.0375 61.5375L361.0375 60.896873ZM365.4125 70.06875L365.4125 55.725L367.02188 55.725L367.02188 57.06875Q367.58438 56.2875 368.2875 55.896873Q369.00626 55.490623 370.02188 55.490623Q371.35 55.490623 372.36563 56.178123Q373.38126 56.865623 373.89688 58.115623Q374.42813 59.35 374.42813 60.834373Q374.42813 62.428123 373.85 63.709373Q373.2875 64.975 372.19376 65.6625Q371.1 66.33437 369.89688 66.33437Q369.02188 66.33437 368.31876 65.95937Q367.63126 65.58437 367.17813 65.02187L367.17813 70.06875L365.4125 70.06875ZM367.00626 60.975Q367.00626 62.975 367.81876 63.928123Q368.63126 64.88125 369.7875 64.88125Q370.95938 64.88125 371.7875 63.896873Q372.63126 62.9125 372.63126 60.81875Q372.63126 58.85 371.80313 57.865623Q370.99063 56.865623 369.86563 56.865623Q368.74063 56.865623 367.86563 57.928123Q367.00626 58.975 367.00626 60.975ZM383.52188 62.75625L385.33438 62.990623Q384.9125 64.56875 383.74063 65.45937Q382.58438 66.33437 380.77188 66.33437Q378.50626 66.33437 377.1625 64.94375Q375.83438 63.5375 375.83438 61.00625Q375.83438 58.38125 377.17813 56.94375Q378.52188 55.490623 380.67813 55.490623Q382.75626 55.490623 384.06876 56.9125Q385.39688 58.31875 385.39688 60.896873Q385.39688 61.053123 385.38126 61.365623L377.64688 61.365623Q377.74063 63.06875 378.61563 63.975Q379.49063 64.88125 380.7875 64.88125Q381.75626 64.88125 382.42813 64.38125Q383.11563 63.865623 383.52188 62.75625ZM377.74063 59.9125L383.5375 59.9125Q383.42813 58.615623 382.88126 57.959373Q382.0375 56.94375 380.69376 56.94375Q379.49063 56.94375 378.6625 57.75625Q377.83438 58.553123 377.74063 59.9125ZM386.49063 66.1L386.49063 64.67812L393.1 57.1Q391.975 57.146873 391.11563 57.146873L386.88126 57.146873L386.88126 55.725L395.36563 55.725L395.36563 56.896873L389.74063 63.475L388.6625 64.67812Q389.83438 64.58437 390.88126 64.58437L395.67813 64.58437L395.67813 66.1L386.49063 66.1ZM395.77188 60.9125Q395.77188 58.0375 397.36563 56.646873Q398.70938 55.490623 400.63126 55.490623Q402.77188 55.490623 404.11563 56.896873Q405.475 58.303123 405.475 60.771873Q405.475 62.771873 404.88126 63.928123Q404.2875 65.06875 403.13126 65.70937Q401.99063 66.33437 400.63126 66.33437Q398.44376 66.33437 397.1 64.94375Q395.77188 63.5375 395.77188 60.9125ZM397.56876 60.9125Q397.56876 62.9125 398.42813 63.896873Q399.30313 64.88125 400.63126 64.88125Q401.94376 64.88125 402.80313 63.896873Q403.67813 62.896873 403.67813 60.85Q403.67813 58.928123 402.80313 57.94375Q401.92813 56.94375 400.63126 56.94375Q399.30313 56.94375 398.42813 57.94375Q397.56876 58.928123 397.56876 60.9125ZM407.42813 53.803123L407.42813 51.7875L409.19376 51.7875L409.19376 53.803123L407.42813 53.803123ZM407.42813 66.1L407.42813 55.725L409.19376 55.725L409.19376 66.1L407.42813 66.1ZM418.14688 66.1L418.14688 64.7875Q417.1625 66.33437 415.24063 66.33437Q414.00626 66.33437 412.95938 65.64687Q411.92813 64.95937 411.35 63.740623Q410.7875 62.521873 410.7875 60.928123Q410.7875 59.365623 411.30313 58.1Q411.81876 56.834373 412.85 56.1625Q413.89688 55.490623 415.1625 55.490623Q416.1 55.490623 416.83438 55.896873Q417.56876 56.2875 418.0375 56.9125L418.0375 51.7875L419.77188 51.7875L419.77188 66.1L418.14688 66.1ZM412.58438 60.928123Q412.58438 62.9125 413.42813 63.896873Q414.27188 64.88125 415.4125 64.88125Q416.56876 64.88125 417.36563 63.94375Q418.17813 63.00625 418.17813 61.06875Q418.17813 58.94375 417.35 57.94375Q416.5375 56.94375 415.33438 56.94375Q414.1625 56.94375 413.36563 57.9125Q412.58438 58.865623 412.58438 60.928123ZM421.70938 63.00625L423.45938 62.725Q423.6 63.771873 424.27188 64.33437Q424.94376 64.88125 426.14688 64.88125Q427.35 64.88125 427.92813 64.39687Q428.52188 63.896873 428.52188 63.240623Q428.52188 62.646873 428.00626 62.303123Q427.64688 62.06875 426.20938 61.709373Q424.27188 61.209373 423.52188 60.865623Q422.7875 60.50625 422.39688 59.88125Q422.00626 59.240623 422.00626 58.475Q422.00626 57.7875 422.31876 57.19375Q422.64688 56.6 423.19376 56.209373Q423.6 55.9125 424.30313 55.709373Q425.02188 55.490623 425.83438 55.490623Q427.05313 55.490623 427.975 55.85Q428.89688 56.19375 429.33438 56.803123Q429.77188 57.396873 429.94376 58.396873L428.225 58.63125Q428.1 57.834373 427.5375 57.396873Q426.975 56.94375 425.95938 56.94375Q424.74063 56.94375 424.225 57.35Q423.70938 57.740623 423.70938 58.271873Q423.70938 58.615623 423.92813 58.896873Q424.13126 59.178123 424.6 59.365623Q424.86563 59.459373 426.14688 59.803123Q428.02188 60.303123 428.75626 60.63125Q429.49063 60.94375 429.9125 61.553123Q430.33438 62.146873 430.33438 63.053123Q430.33438 63.928123 429.81876 64.70937Q429.30313 65.49062 428.33438 65.9125Q427.36563 66.33437 426.14688 66.33437Q424.13126 66.33437 423.06876 65.49062Q422.00626 64.64687 421.70938 63.00625Z" fill-rule="nonzero"/></svg>